<?xml version="1.0" standalone="no"?>
<!DOCTYPE svg PUBLIC "-//W3C//DTD SVG 20010904//EN"
 "http://www.w3.org/TR/2001/REC-SVG-20010904/DTD/svg10.dtd">
<svg version="1.0" xmlns="http://www.w3.org/2000/svg"
 width="3532.000000pt" height="1587.000000pt" viewBox="0 0 3532.000000 1587.000000"
 preserveAspectRatio="xMidYMid meet">

<g transform="translate(0.000000,1587.000000) scale(0.100000,-0.100000)"
fill="#000000" stroke="none">
<path d="M7620 12879 c-25 -5 -83 -16 -130 -25 -104 -19 -163 -34 -158 -40 3
-2 54 7 114 20 163 36 342 49 504 36 172 -13 197 -11 90 6 -95 15 -351 17
-420 3z"/>
<path d="M8135 12855 c6 -3 53 -11 105 -20 52 -8 109 -18 125 -21 21 -4 26 -2
15 4 -8 6 -61 17 -116 26 -94 15 -153 20 -129 11z"/>
<path d="M7236 12790 c-26 -11 -51 -22 -55 -26 -3 -4 3 -4 14 1 11 4 42 13 69
20 26 8 51 16 54 19 11 12 -34 4 -82 -14z"/>
<path d="M8411 12806 c8 -8 171 -47 176 -42 3 3 -15 9 -38 15 -24 6 -58 16
-75 21 -30 10 -71 14 -63 6z"/>
<path d="M7125 12751 c-6 -5 -38 -19 -73 -31 -34 -13 -65 -27 -68 -31 -7 -13
-9 -13 96 31 52 22 86 40 75 40 -12 0 -25 -4 -30 -9z"/>
<path d="M8715 12719 c132 -43 133 -43 120 -30 -6 5 -46 19 -90 31 -44 13 -84
27 -89 32 -6 4 -21 8 -35 7 -15 0 28 -18 94 -40z"/>
<path d="M6913 12660 c-24 -11 -43 -21 -43 -24 0 -5 91 31 99 40 9 9 -16 2
-56 -16z"/>
<path d="M8861 12676 c16 -16 211 -78 284 -91 317 -56 402 -77 538 -131 169
-68 278 -125 502 -264 77 -48 214 -130 305 -182 215 -123 425 -258 598 -384
76 -55 83 -52 8 5 -60 45 -365 251 -372 251 -2 0 -36 21 -76 46 -39 26 -95 59
-122 74 -143 79 -202 114 -321 192 -265 174 -518 297 -705 343 -36 9 -78 20
-95 25 -33 9 -124 23 -260 40 -49 6 -99 15 -110 20 -77 33 -187 68 -174 56z"/>
<path d="M6778 12594 c-38 -19 -68 -37 -68 -39 0 -5 139 62 149 71 14 13 -23
-2 -81 -32z"/>
<path d="M6618 12512 c-96 -54 -97 -61 0 -12 75 38 95 51 75 49 -5 0 -38 -17
-75 -37z"/>
<path d="M8110 12535 c-63 -7 -180 -21 -260 -30 -80 -9 -179 -20 -220 -25 -41
-6 -149 -19 -240 -30 -442 -55 -589 -80 -830 -140 -192 -48 -265 -79 -381
-164 -105 -77 -254 -188 -276 -206 -7 -6 -16 -10 -20 -9 -5 1 -12 -8 -18 -19
-14 -32 -35 -35 -57 -10 -17 20 -22 21 -51 9 -18 -7 -43 -14 -56 -16 -13 -2
-27 -8 -30 -13 -7 -12 -69 -50 -93 -58 -10 -4 -18 -10 -18 -15 0 -5 -13 -15
-30 -24 -35 -18 -71 -50 -188 -166 -209 -207 -400 -459 -578 -764 -66 -112
-208 -389 -234 -455 -12 -30 -28 -68 -35 -85 -30 -66 -72 -215 -61 -215 4 0
17 24 31 53 31 68 49 90 71 85 55 -10 35 -183 -45 -396 -64 -172 -80 -219 -86
-257 l-6 -40 46 50 c26 28 56 68 67 90 11 22 23 42 27 45 3 3 15 21 25 40 10
19 32 53 48 75 38 53 157 213 188 253 51 66 87 112 160 207 41 53 91 117 110
141 19 23 52 67 73 96 21 29 55 76 75 103 20 28 57 79 82 114 319 445 531 662
935 957 525 384 1027 616 1490 689 55 9 127 20 160 25 83 13 398 56 523 71 94
11 100 13 81 27 -29 20 -236 24 -379 7z"/>
<path d="M9290 12526 c73 -46 170 -84 335 -132 50 -14 154 -48 233 -76 138
-49 188 -58 120 -23 -177 92 -323 156 -398 175 -19 4 -61 15 -92 24 -31 8 -86
20 -122 26 -36 6 -73 13 -83 16 -10 3 -7 -2 7 -10z"/>
<path d="M6481 12444 c-18 -8 -31 -17 -29 -20 6 -5 78 24 78 31 0 8 -12 5 -49
-11z"/>
<path d="M6355 12393 c-33 -13 -71 -29 -84 -34 -13 -5 -22 -12 -19 -14 4 -4
176 62 187 71 12 11 -31 -1 -84 -23z"/>
<path d="M7910 12363 c-264 -46 -477 -106 -685 -195 -364 -155 -757 -405
-1190 -757 -298 -241 -627 -605 -650 -719 -7 -32 -6 -33 22 -27 33 8 143 81
263 175 47 37 123 93 170 125 47 31 93 64 103 73 9 8 19 13 22 11 2 -3 -30
-36 -72 -75 -148 -134 -382 -366 -460 -455 -113 -131 -130 -164 -67 -137 88
39 144 86 272 232 193 220 458 488 672 681 507 458 675 595 899 730 183 110
441 221 616 266 100 25 247 68 252 73 7 7 -128 6 -167 -1z"/>
<path d="M6200 12325 c-14 -8 -20 -14 -15 -14 6 0 21 6 35 14 14 8 21 14 15
14 -5 0 -21 -6 -35 -14z"/>
<path d="M6145 12300 c-3 -6 1 -7 9 -4 18 7 21 14 7 14 -6 0 -13 -4 -16 -10z"/>
<path d="M6000 12229 c-63 -33 -119 -65 -125 -71 -8 -8 240 117 254 129 2 1 0
3 -5 3 -5 0 -61 -28 -124 -61z"/>
<path d="M8015 12239 c-144 -14 -300 -50 -430 -100 -44 -17 -93 -35 -110 -41
-16 -6 -37 -17 -45 -23 -8 -7 -26 -16 -39 -20 -74 -23 -411 -280 -411 -314 0
-35 16 -44 50 -32 39 13 73 14 66 2 -3 -5 -25 -18 -48 -30 -92 -46 -353 -220
-413 -276 -18 -16 -63 -57 -100 -90 -91 -81 -93 -82 -100 -105 -3 -10 -15 -22
-26 -25 -31 -10 -24 -40 11 -41 17 -1 30 3 30 8 0 5 5 6 10 3 6 -3 10 -1 10 4
0 6 9 11 20 11 11 0 37 10 58 23 20 13 57 31 82 42 25 11 63 30 85 44 70 43
370 191 387 191 9 0 20 5 23 10 10 16 35 12 35 -6 0 -23 21 -39 55 -41 44 -3
339 44 515 82 483 105 834 148 1190 147 202 0 266 -5 460 -30 124 -17 241 -33
260 -35 19 -3 80 -12 135 -21 225 -35 350 -43 370 -22 21 21 19 34 -12 61 -75
64 29 24 237 -91 36 -20 108 -59 160 -87 52 -28 113 -62 135 -76 22 -14 49
-27 59 -28 11 -2 28 -11 38 -20 10 -9 18 -13 18 -8 0 4 7 2 15 -5 8 -7 15 -9
15 -5 0 5 8 1 18 -8 10 -10 22 -14 26 -10 4 4 10 3 14 -2 22 -31 112 -41 97
-11 -3 6 -8 19 -11 29 -4 9 -10 17 -14 17 -5 0 -26 17 -49 38 -60 55 -89 81
-171 147 -41 33 -84 68 -94 78 -11 9 -23 17 -26 17 -4 0 -18 10 -31 21 -13 12
-42 33 -64 47 -22 14 -42 28 -45 31 -10 13 -259 171 -364 231 -129 74 -416
216 -466 231 -38 11 -145 38 -254 64 -133 32 -319 37 -691 20 -77 -3 -146 -8
-153 -11 -7 -2 -66 1 -130 6 -177 15 -298 18 -387 9z"/>
<path d="M5823 12130 c-18 -11 -33 -22 -33 -25 0 -2 16 5 35 16 19 12 35 23
35 25 0 6 -3 5 -37 -16z"/>
<path d="M5703 12051 c-39 -26 -104 -74 -144 -106 -84 -66 -372 -352 -438
-435 -33 -42 -29 -39 19 15 190 211 443 441 588 534 46 29 60 41 49 41 -2 0
-35 -22 -74 -49z"/>
<path d="M20075 12000 c-25 -11 1 -11 35 0 20 6 21 8 5 8 -11 0 -29 -3 -40 -8z"/>
<path d="M20230 12006 c0 -3 9 -10 20 -16 11 -6 20 -8 20 -6 0 3 -9 10 -20 16
-11 6 -20 8 -20 6z"/>
<path d="M19950 11980 c-11 -8 -7 -9 15 -4 37 8 45 14 19 14 -10 0 -26 -5 -34
-10z"/>
<path d="M19836 11961 c-3 -4 6 -6 19 -3 14 2 25 6 25 8 0 8 -39 4 -44 -5z"/>
<path d="M19698 11943 c6 -2 18 -2 25 0 6 3 1 5 -13 5 -14 0 -19 -2 -12 -5z"/>
<path d="M19558 11923 c6 -2 18 -2 25 0 6 3 1 5 -13 5 -14 0 -19 -2 -12 -5z"/>
<path d="M19459 11883 c-13 -16 -12 -17 4 -4 9 7 17 15 17 17 0 8 -8 3 -21
-13z"/>
<path d="M20325 11085 c0 -440 1 -619 2 -397 2 222 2 582 0 800 -1 218 -2 37
-2 -403z"/>
<path d="M19432 9269 c-2 -2330 -1 -2577 14 -2595 8 -10 12 -12 7 -4 -4 8 -10
1176 -13 2595 l-5 2580 -3 -2576z"/>
<path d="M8790 11584 c-198 -9 -515 -57 -795 -121 -343 -78 -796 -205 -782
-220 3 -2 41 7 84 21 43 14 105 35 138 46 33 11 87 26 120 34 33 8 114 28 180
44 764 190 1252 229 1740 137 44 -8 103 -17 130 -20 45 -4 47 -4 15 5 -189 51
-576 85 -830 74z"/>
<path d="M11160 11576 c0 -2 35 -33 78 -67 42 -34 69 -53 59 -42 -22 25 -137
117 -137 109z"/>
<path d="M9670 11492 c8 -5 44 -15 80 -21 117 -21 372 -96 516 -151 60 -23
123 -47 139 -53 66 -24 247 -120 336 -178 240 -158 527 -439 749 -734 86 -115
212 -301 250 -370 12 -22 39 -71 61 -110 22 -38 62 -116 91 -173 28 -56 53
-101 55 -98 5 5 -101 217 -164 326 -320 552 -746 1011 -1150 1238 -188 106
-469 212 -756 286 -142 36 -232 53 -207 38z"/>
<path d="M5054 11428 c-30 -34 -47 -58 -42 -58 3 0 19 18 37 40 34 43 38 55 5
18z"/>
<path d="M11347 11420 c18 -19 34 -32 36 -29 2 2 -12 17 -32 33 l-36 30 32
-34z"/>
<path d="M30913 11433 c9 -2 25 -2 35 0 9 3 1 5 -18 5 -19 0 -27 -2 -17 -5z"/>
<path d="M30805 11420 c-27 -7 -28 -8 -5 -8 14 0 34 3 45 8 25 11 2 11 -40 0z"/>
<path d="M30688 11403 c6 -2 18 -2 25 0 6 3 1 5 -13 5 -14 0 -19 -2 -12 -5z"/>
<path d="M30638 11393 c6 -2 18 -2 25 0 6 3 1 5 -13 5 -14 0 -19 -2 -12 -5z"/>
<path d="M30558 11383 c6 -2 18 -2 25 0 6 3 1 5 -13 5 -14 0 -19 -2 -12 -5z"/>
<path d="M11455 11318 c33 -35 89 -94 124 -133 35 -38 51 -54 36 -35 -43 55
-206 230 -214 230 -4 0 20 -28 54 -62z"/>
<path d="M4958 11303 c-53 -70 -95 -132 -81 -118 16 15 134 175 129 175 -3 0
-24 -26 -48 -57z"/>
<path d="M30413 11338 c-11 -13 -24 -30 -28 -38 -8 -16 -6 -14 34 33 14 15 22
27 19 27 -2 0 -14 -10 -25 -22z"/>
<path d="M30372 11240 c0 -14 2 -19 5 -12 2 6 2 18 0 25 -3 6 -5 1 -5 -13z"/>
<path d="M7080 11196 c-149 -61 -198 -84 -178 -85 9 -1 20 4 23 9 3 6 12 10
20 10 7 0 46 15 87 34 40 18 91 39 113 46 39 12 69 30 50 30 -6 0 -57 -20
-115 -44z"/>
<path d="M30361 11194 c0 -11 3 -14 6 -6 3 7 2 16 -1 19 -3 4 -6 -2 -5 -13z"/>
<path d="M4804 11084 c-31 -48 -65 -103 -77 -123 -70 -121 -140 -249 -148
-268 -15 -41 -1 -24 26 28 54 109 156 280 249 422 10 15 15 27 12 27 -4 0 -32
-39 -62 -86z"/>
<path d="M30352 11110 c0 -14 2 -19 5 -12 2 6 2 18 0 25 -3 6 -5 1 -5 -13z"/>
<path d="M6565 10961 c-165 -83 -345 -174 -400 -203 -55 -30 -159 -85 -231
-122 -73 -38 -142 -78 -155 -89 -14 -11 -1 -6 31 11 30 16 114 60 185 97 72
37 171 89 220 115 168 89 440 226 545 274 102 47 135 66 114 66 -5 0 -144 -67
-309 -149z"/>
<path d="M11706 11023 c37 -49 71 -92 77 -98 18 -18 -5 17 -47 74 -23 29 -50
66 -61 82 -11 16 -24 29 -28 29 -4 0 22 -39 59 -87z"/>
<path d="M30341 11054 c0 -11 3 -14 6 -6 3 7 2 16 -1 19 -3 4 -6 -2 -5 -13z"/>
<path d="M30332 10980 c0 -14 2 -19 5 -12 2 6 2 18 0 25 -3 6 -5 1 -5 -13z"/>
<path d="M30322 10905 c0 -16 2 -22 5 -12 2 9 2 23 0 30 -3 6 -5 -1 -5 -18z"/>
<path d="M11838 10843 c81 -114 223 -330 322 -488 51 -82 97 -154 103 -160 15
-15 6 0 -110 186 -56 92 -139 220 -184 285 -44 66 -100 147 -122 181 -23 35
-45 63 -49 63 -5 0 14 -30 40 -67z"/>
<path d="M30312 10850 c0 -14 2 -19 5 -12 2 6 2 18 0 25 -3 6 -5 1 -5 -13z"/>
<path d="M30302 10770 c0 -14 2 -19 5 -12 2 6 2 18 0 25 -3 6 -5 1 -5 -13z"/>
<path d="M30292 10720 c0 -14 2 -19 5 -12 2 6 2 18 0 25 -3 6 -5 1 -5 -13z"/>
<path d="M4526 10586 c-49 -102 -45 -111 5 -12 22 43 38 80 36 82 -3 3 -21
-29 -41 -70z"/>
<path d="M30281 10634 c0 -11 3 -14 6 -6 3 7 2 16 -1 19 -3 4 -6 -2 -5 -13z"/>
<path d="M30272 10580 c0 -14 2 -19 5 -12 2 6 2 18 0 25 -3 6 -5 1 -5 -13z"/>
<path d="M5644 10448 c-100 -83 -267 -247 -649 -640 -115 -118 -256 -258 -311
-309 -100 -93 -147 -149 -125 -149 6 0 11 6 11 13 0 8 33 45 73 83 261 250
357 344 467 464 227 245 555 558 628 599 9 5 14 12 11 15 -3 3 -50 -31 -105
-76z"/>
<path d="M30262 10500 c0 -14 2 -19 5 -12 2 6 2 18 0 25 -3 6 -5 1 -5 -13z"/>
<path d="M4477 10483 c-4 -3 -7 -13 -7 -22 1 -13 3 -13 11 2 11 19 8 33 -4 20z"/>
<path d="M30251 10454 c0 -11 3 -14 6 -6 3 7 2 16 -1 19 -3 4 -6 -2 -5 -13z"/>
<path d="M4457 10433 c-4 -3 -7 -13 -7 -22 1 -13 3 -13 11 2 11 19 8 33 -4 20z"/>
<path d="M17188 10393 c34 -2 90 -2 125 0 34 2 6 3 -63 3 -69 0 -97 -1 -62 -3z"/>
<path d="M4431 10359 c-6 -18 -9 -34 -7 -36 2 -2 9 10 15 28 6 18 9 34 7 36
-2 2 -9 -10 -15 -28z"/>
<path d="M30242 10370 c0 -14 2 -19 5 -12 2 6 2 18 0 25 -3 6 -5 1 -5 -13z"/>
<path d="M16938 10373 c6 -2 18 -2 25 0 6 3 1 5 -13 5 -14 0 -19 -2 -12 -5z"/>
<path d="M17558 10373 c7 -3 16 -2 19 1 4 3 -2 6 -13 5 -11 0 -14 -3 -6 -6z"/>
<path d="M18888 10373 c7 -3 16 -2 19 1 4 3 -2 6 -13 5 -11 0 -14 -3 -6 -6z"/>
<path d="M21163 10373 c9 -2 23 -2 30 0 6 3 -1 5 -18 5 -16 0 -22 -2 -12 -5z"/>
<path d="M21598 10373 c7 -3 16 -2 19 1 4 3 -2 6 -13 5 -11 0 -14 -3 -6 -6z"/>
<path d="M24473 10373 c9 -2 23 -2 30 0 6 3 -1 5 -18 5 -16 0 -22 -2 -12 -5z"/>
<path d="M25078 10373 c6 -2 18 -2 25 0 6 3 1 5 -13 5 -14 0 -19 -2 -12 -5z"/>
<path d="M27998 10373 c6 -2 18 -2 25 0 6 3 1 5 -13 5 -14 0 -19 -2 -12 -5z"/>
<path d="M28513 10373 c9 -2 23 -2 30 0 6 3 -1 5 -18 5 -16 0 -22 -2 -12 -5z"/>
<path d="M19040 10366 c0 -2 8 -10 18 -17 15 -13 16 -12 3 4 -13 16 -21 21
-21 13z"/>
<path d="M16828 10353 c7 -3 16 -2 19 1 4 3 -2 6 -13 5 -11 0 -14 -3 -6 -6z"/>
<path d="M17678 10353 c7 -3 16 -2 19 1 4 3 -2 6 -13 5 -11 0 -14 -3 -6 -6z"/>
<path d="M28658 10353 c6 -2 18 -2 25 0 6 3 1 5 -13 5 -14 0 -19 -2 -12 -5z"/>
<path d="M16768 10343 c7 -3 16 -2 19 1 4 3 -2 6 -13 5 -11 0 -14 -3 -6 -6z"/>
<path d="M17735 10340 c27 -12 43 -12 25 0 -8 5 -22 9 -30 9 -10 0 -8 -3 5 -9z"/>
<path d="M18735 10340 c-3 -6 1 -7 9 -4 18 7 21 14 7 14 -6 0 -13 -4 -16 -10z"/>
<path d="M21008 10343 c7 -3 16 -2 19 1 4 3 -2 6 -13 5 -11 0 -14 -3 -6 -6z"/>
<path d="M21750 10346 c0 -2 11 -6 25 -8 13 -3 22 -1 19 3 -5 9 -44 13 -44 5z"/>
<path d="M24298 10343 c7 -3 16 -2 19 1 4 3 -2 6 -13 5 -11 0 -14 -3 -6 -6z"/>
<path d="M25258 10343 c7 -3 16 -2 19 1 4 3 -2 6 -13 5 -11 0 -14 -3 -6 -6z"/>
<path d="M27808 10343 c7 -3 16 -2 19 1 4 3 -2 6 -13 5 -11 0 -14 -3 -6 -6z"/>
<path d="M28731 10346 c2 -2 18 -6 34 -10 22 -5 26 -4 15 4 -14 9 -59 15 -49
6z"/>
<path d="M30232 10315 c0 -16 2 -22 5 -12 2 9 2 23 0 30 -3 6 -5 -1 -5 -18z"/>
<path d="M16670 10320 c-18 -12 -2 -12 25 0 13 6 15 9 5 9 -8 0 -22 -4 -30 -9z"/>
<path d="M18685 10320 c-3 -6 1 -7 9 -4 18 7 21 14 7 14 -6 0 -13 -4 -16 -10z"/>
<path d="M20916 10321 c-4 -5 3 -7 14 -4 23 6 26 13 6 13 -8 0 -17 -4 -20 -9z"/>
<path d="M24200 10320 c-18 -12 -2 -12 25 0 13 6 15 9 5 9 -8 0 -22 -4 -30 -9z"/>
<path d="M25345 10320 c27 -12 43 -12 25 0 -8 5 -22 9 -30 9 -10 0 -8 -3 5 -9z"/>
<path d="M27710 10320 c-18 -12 -2 -12 25 0 13 6 15 9 5 9 -8 0 -22 -4 -30 -9z"/>
<path d="M28821 10326 c2 -2 18 -6 34 -10 22 -5 26 -4 15 4 -14 9 -59 15 -49
6z"/>
<path d="M4411 10303 c-1 -6 -4 -20 -7 -30 -5 -17 -5 -17 6 0 6 10 9 23 6 30
-3 9 -5 9 -5 0z"/>
<path d="M16610 10300 c-8 -5 -10 -10 -5 -10 6 0 17 5 25 10 8 5 11 10 5 10
-5 0 -17 -5 -25 -10z"/>
<path d="M17870 10306 c0 -2 7 -7 16 -10 8 -3 12 -2 9 4 -6 10 -25 14 -25 6z"/>
<path d="M18635 10300 c-3 -6 1 -7 9 -4 18 7 21 14 7 14 -6 0 -13 -4 -16 -10z"/>
<path d="M19089 10272 c5 -34 6 -35 9 -8 2 16 0 32 -5 37 -5 5 -7 -7 -4 -29z"/>
<path d="M24135 10300 c-3 -6 1 -7 9 -4 18 7 21 14 7 14 -6 0 -13 -4 -16 -10z"/>
<path d="M25410 10306 c0 -2 7 -7 16 -10 8 -3 12 -2 9 4 -6 10 -25 14 -25 6z"/>
<path d="M28925 10300 c27 -12 43 -12 25 0 -8 5 -22 9 -30 9 -10 0 -8 -3 5 -9z"/>
<path d="M16555 10280 c-3 -6 1 -7 9 -4 18 7 21 14 7 14 -6 0 -13 -4 -16 -10z"/>
<path d="M17930 10286 c0 -2 7 -7 16 -10 8 -3 12 -2 9 4 -6 10 -25 14 -25 6z"/>
<path d="M24085 10280 c-3 -6 1 -7 9 -4 18 7 21 14 7 14 -6 0 -13 -4 -16 -10z"/>
<path d="M25470 10280 c8 -5 20 -10 25 -10 6 0 3 5 -5 10 -8 5 -19 10 -25 10
-5 0 -3 -5 5 -10z"/>
<path d="M20324 10130 c0 -85 2 -120 3 -77 2 42 2 112 0 155 -1 42 -3 7 -3
-78z"/>
<path d="M16500 10260 c-8 -5 -10 -10 -5 -10 6 0 17 5 25 10 8 5 11 10 5 10
-5 0 -17 -5 -25 -10z"/>
<path d="M21977 10259 c7 -7 15 -10 18 -7 3 3 -2 9 -12 12 -14 6 -15 5 -6 -5z"/>
<path d="M4391 10234 c0 -11 3 -14 6 -6 3 7 2 16 -1 19 -3 4 -6 -2 -5 -13z"/>
<path d="M18504 10234 c-18 -14 -18 -15 4 -4 12 6 22 13 22 15 0 8 -5 6 -26
-11z"/>
<path d="M22010 10246 c0 -3 9 -10 20 -16 11 -6 20 -8 20 -6 0 3 -9 10 -20 16
-11 6 -20 8 -20 6z"/>
<path d="M23980 10240 c-8 -5 -10 -10 -5 -10 6 0 17 5 25 10 8 5 11 10 5 10
-5 0 -17 -5 -25 -10z"/>
<path d="M16435 10230 c-3 -6 1 -7 9 -4 18 7 21 14 7 14 -6 0 -13 -4 -16 -10z"/>
<path d="M31302 10233 c108 -2 288 -2 400 0 112 1 23 2 -197 2 -220 0 -311 -1
-203 -2z"/>
<path d="M19092 10210 c0 -14 2 -19 5 -12 2 6 2 18 0 25 -3 6 -5 1 -5 -13z"/>
<path d="M30168 10223 c6 -2 18 -2 25 0 6 3 1 5 -13 5 -14 0 -19 -2 -12 -5z"/>
<path d="M31938 10202 c15 -15 29 -26 31 -25 6 4 -41 53 -50 53 -4 0 4 -13 19
-28z"/>
<path d="M18090 10216 c0 -2 7 -7 16 -10 8 -3 12 -2 9 4 -6 10 -25 14 -25 6z"/>
<path d="M18459 10203 c-13 -16 -12 -17 4 -4 9 7 17 15 17 17 0 8 -8 3 -21
-13z"/>
<path d="M20685 10210 c-3 -6 1 -7 9 -4 18 7 21 14 7 14 -6 0 -13 -4 -16 -10z"/>
<path d="M23915 10210 c-3 -6 1 -7 9 -4 18 7 21 14 7 14 -6 0 -13 -4 -16 -10z"/>
<path d="M25630 10216 c0 -2 7 -7 16 -10 8 -3 12 -2 9 4 -6 10 -25 14 -25 6z"/>
<path d="M29210 10210 c8 -5 20 -10 25 -10 6 0 3 5 -5 10 -8 5 -19 10 -25 10
-5 0 -3 -5 5 -10z"/>
<path d="M30083 10213 c9 -2 25 -2 35 0 9 3 1 5 -18 5 -19 0 -27 -2 -17 -5z"/>
<path d="M4376 10195 c-3 -9 -6 -24 -5 -33 0 -9 5 -4 10 12 9 32 6 48 -5 21z"/>
<path d="M5220 10168 c-139 -98 -296 -251 -384 -375 -91 -127 3 -56 234 176
132 133 217 228 209 235 -2 1 -29 -15 -59 -36z"/>
<path d="M30038 10203 c7 -3 16 -2 19 1 4 3 -2 6 -13 5 -11 0 -14 -3 -6 -6z"/>
<path d="M16355 10190 c-3 -6 1 -7 9 -4 18 7 21 14 7 14 -6 0 -13 -4 -16 -10z"/>
<path d="M29250 10196 c0 -2 7 -7 16 -10 8 -3 12 -2 9 4 -6 10 -25 14 -25 6z"/>
<path d="M29943 10193 c9 -2 23 -2 30 0 6 3 -1 5 -18 5 -16 0 -22 -2 -12 -5z"/>
<path d="M29898 10183 c7 -3 16 -2 19 1 4 3 -2 6 -13 5 -11 0 -14 -3 -6 -6z"/>
<path d="M12299 10125 c18 -33 38 -64 44 -70 5 -5 -5 17 -23 50 -18 33 -38 65
-43 70 -6 6 4 -17 22 -50z"/>
<path d="M29808 10173 c6 -2 18 -2 25 0 6 3 1 5 -13 5 -14 0 -19 -2 -12 -5z"/>
<path d="M22160 10145 c13 -14 26 -25 28 -25 3 0 -5 11 -18 25 -13 14 -26 25
-28 25 -3 0 5 -11 18 -25z"/>
<path d="M18379 10143 c-13 -16 -12 -17 4 -4 9 7 17 15 17 17 0 8 -8 3 -21
-13z"/>
<path d="M19092 10140 c0 -14 2 -19 5 -12 2 6 2 18 0 25 -3 6 -5 1 -5 -13z"/>
<path d="M4352 10101 c-7 -21 -12 -45 -11 -52 0 -8 7 8 15 35 9 26 13 50 11
52 -2 2 -9 -13 -15 -35z"/>
<path d="M20539 10119 l-24 -20 28 17 c15 9 27 18 27 20 0 8 -8 4 -31 -17z"/>
<path d="M25780 10136 c0 -3 9 -10 20 -16 11 -6 20 -8 20 -6 0 3 -9 10 -20 16
-11 6 -20 8 -20 6z"/>
<path d="M18254 10121 c7 -11 46 -35 46 -28 0 3 -12 12 -26 22 -15 9 -23 12
-20 6z"/>
<path d="M22240 10075 c19 -19 36 -35 39 -35 3 0 -10 16 -29 35 -19 19 -36 35
-39 35 -3 0 10 -16 29 -35z"/>
<path d="M27249 10093 c-13 -16 -12 -17 4 -4 9 7 17 15 17 17 0 8 -8 3 -21
-13z"/>
<path d="M19094 9995 c0 -60 1 -84 3 -52 2 32 2 81 0 110 -2 29 -3 3 -3 -58z"/>
<path d="M29695 10089 c-4 -6 -5 -12 -2 -15 2 -3 7 2 10 11 7 17 1 20 -8 4z"/>
<path d="M16169 10063 l-24 -28 28 24 c25 23 32 31 24 31 -2 0 -14 -12 -28
-27z"/>
<path d="M4410 10048 c0 -36 4 -35 14 5 4 16 2 27 -4 27 -5 0 -10 -14 -10 -32z"/>
<path d="M20439 10043 l-24 -28 28 24 c15 14 27 26 27 28 0 8 -8 1 -31 -24z"/>
<path d="M23659 10053 c-13 -16 -12 -17 4 -4 16 13 21 21 13 21 -2 0 -10 -8
-17 -17z"/>
<path d="M25890 10066 c0 -2 8 -10 18 -17 15 -13 16 -12 3 4 -13 16 -21 21
-21 13z"/>
<path d="M27145 9998 l-50 -53 53 50 c48 46 57 55 49 55 -1 0 -25 -24 -52 -52z"/>
<path d="M12365 10010 c9 -16 18 -30 21 -30 2 0 -2 14 -11 30 -9 17 -18 30
-21 30 -2 0 2 -13 11 -30z"/>
<path d="M4326 9999 c-8 -42 0 -50 9 -9 4 17 5 34 2 36 -2 3 -7 -10 -11 -27z"/>
<path d="M16080 9985 c-24 -25 -42 -45 -39 -45 3 0 25 20 49 45 24 25 42 45
39 45 -3 0 -25 -20 -49 -45z"/>
<path d="M20375 9990 c-16 -16 -35 -30 -42 -30 -7 0 -13 -5 -13 -10 0 -16 30
3 64 39 17 17 27 31 25 31 -3 0 -18 -13 -34 -30z"/>
<path d="M23599 10003 c-13 -16 -12 -17 4 -4 16 13 21 21 13 21 -2 0 -10 -8
-17 -17z"/>
<path d="M4397 10003 c-4 -3 -7 -20 -6 -37 l1 -31 8 35 c9 36 8 45 -3 33z"/>
<path d="M25975 9990 c10 -11 20 -20 23 -20 3 0 -3 9 -13 20 -10 11 -20 20
-23 20 -3 0 3 -9 13 -20z"/>
<path d="M22334 9967 c16 -20 30 -37 33 -37 7 0 -36 58 -49 66 -7 4 1 -9 16
-29z"/>
<path d="M4306 9915 c-3 -9 -6 -26 -5 -38 1 -16 4 -12 10 12 10 34 6 55 -5 26z"/>
<path d="M26050 9927 c0 -2 15 -16 33 -33 l32 -29 -29 33 c-28 30 -36 37 -36
29z"/>
<path d="M12420 9911 c0 -6 4 -13 10 -16 6 -3 7 1 4 9 -7 18 -14 21 -14 7z"/>
<path d="M12460 9840 c11 -22 23 -40 25 -40 3 0 -4 18 -15 40 -11 22 -23 40
-25 40 -3 0 4 -18 15 -40z"/>
<path d="M15979 9863 c-13 -16 -12 -17 4 -4 9 7 17 15 17 17 0 8 -8 3 -21 -13z"/>
<path d="M19092 9855 c0 -16 2 -22 5 -12 2 9 2 23 0 30 -3 6 -5 -1 -5 -18z"/>
<path d="M29631 9864 c0 -11 3 -14 6 -6 3 7 2 16 -1 19 -3 4 -6 -2 -5 -13z"/>
<path d="M15950 9825 c-7 -9 -11 -17 -9 -20 3 -2 10 5 17 15 14 24 10 26 -8 5z"/>
<path d="M26145 9820 c10 -11 20 -20 23 -20 3 0 -3 9 -13 20 -10 11 -20 20
-23 20 -3 0 3 -9 13 -20z"/>
<path d="M4281 9780 c-6 -28 -11 -61 -10 -73 0 -12 7 9 15 47 7 39 12 72 10
74 -2 2 -9 -20 -15 -48z"/>
<path d="M23399 9803 l-24 -28 28 24 c15 14 27 26 27 28 0 8 -8 1 -31 -24z"/>
<path d="M22446 9797 c3 -10 9 -15 12 -12 3 3 0 11 -7 18 -10 9 -11 8 -5 -6z"/>
<path d="M19059 9783 c-13 -16 -12 -17 4 -4 9 7 17 15 17 17 0 8 -8 3 -21 -13z"/>
<path d="M12506 9757 c3 -10 9 -15 12 -12 3 3 0 11 -7 18 -10 9 -11 8 -5 -6z"/>
<path d="M19020 9760 c-9 -6 -10 -10 -3 -10 6 0 15 5 18 10 8 12 4 12 -15 0z"/>
<path d="M15900 9740 c-6 -11 -8 -20 -6 -20 3 0 10 9 16 20 6 11 8 20 6 20 -3
0 -10 -9 -16 -20z"/>
<path d="M17068 9753 c6 -2 18 -2 25 0 6 3 1 5 -13 5 -14 0 -19 -2 -12 -5z"/>
<path d="M17418 9753 c7 -3 16 -2 19 1 4 3 -2 6 -13 5 -11 0 -14 -3 -6 -6z"/>
<path d="M18910 9740 c-21 -7 -21 -8 -5 -9 11 0 27 4 35 9 18 11 5 11 -30 0z"/>
<path d="M12531 9710 c14 -31 19 -36 19 -24 0 6 -7 19 -16 30 -14 18 -14 18
-3 -6z"/>
<path d="M18825 9720 c-16 -7 -17 -9 -3 -9 9 -1 20 4 23 9 7 11 7 11 -20 0z"/>
<path d="M29235 9719 c-4 -6 -5 -12 -2 -15 2 -3 7 2 10 11 7 17 1 20 -8 4z"/>
<path d="M15876 9695 c-9 -26 -7 -32 5 -12 6 10 9 21 6 23 -2 3 -7 -2 -11 -11z"/>
<path d="M18755 9700 c-3 -6 1 -7 9 -4 18 7 21 14 7 14 -6 0 -13 -4 -16 -10z"/>
<path d="M24635 9700 c-3 -6 5 -10 19 -10 14 0 28 5 31 10 3 6 -5 10 -19 10
-14 0 -28 -4 -31 -10z"/>
<path d="M24885 9700 c3 -5 17 -10 31 -10 14 0 22 4 19 10 -3 6 -17 10 -31 10
-14 0 -22 -4 -19 -10z"/>
<path d="M28105 9700 c-19 -8 -19 -9 2 -9 12 -1 25 4 28 9 7 12 -2 12 -30 0z"/>
<path d="M28375 9700 c11 -5 40 -8 65 -8 l45 0 -40 9 c-22 4 -51 8 -65 8 -23
0 -23 -1 -5 -9z"/>
<path d="M20960 9680 c-8 -5 -10 -10 -5 -10 6 0 17 5 25 10 8 5 11 10 5 10 -5
0 -17 -5 -25 -10z"/>
<path d="M21270 9686 c0 -2 7 -7 16 -10 8 -3 12 -2 9 4 -6 10 -25 14 -25 6z"/>
<path d="M24540 9679 c0 -5 5 -7 10 -4 6 3 10 8 10 11 0 2 -4 4 -10 4 -5 0
-10 -5 -10 -11z"/>
<path d="M28000 9680 c-8 -5 -10 -10 -5 -10 6 0 17 5 25 10 8 5 11 10 5 10 -5
0 -17 -5 -25 -10z"/>
<path d="M28550 9680 c8 -5 22 -10 30 -10 13 0 13 1 0 10 -8 5 -22 10 -30 10
-13 0 -13 -1 0 -10z"/>
<path d="M4261 9660 c-1 -14 -4 -36 -6 -50 l-6 -25 11 25 c6 13 9 36 7 50 l-4
25 -2 -25z"/>
<path d="M12556 9657 c3 -10 9 -15 12 -12 3 3 0 11 -7 18 -10 9 -11 8 -5 -6z"/>
<path d="M18650 9660 c-8 -5 -12 -12 -9 -15 4 -3 12 1 19 10 14 17 11 19 -10
5z"/>
<path d="M28658 9663 c7 -3 16 -2 19 1 4 3 -2 6 -13 5 -11 0 -14 -3 -6 -6z"/>
<path d="M29216 9655 c-9 -26 -7 -32 5 -12 6 10 9 21 6 23 -2 3 -7 -2 -11 -11z"/>
<path d="M22510 9655 c0 -5 5 -17 10 -25 5 -8 10 -10 10 -5 0 6 -5 17 -10 25
-5 8 -10 11 -10 5z"/>
<path d="M28758 9643 c7 -3 16 -2 19 1 4 3 -2 6 -13 5 -11 0 -14 -3 -6 -6z"/>
<path d="M12576 9617 c3 -10 9 -15 12 -12 3 3 0 11 -7 18 -10 9 -11 8 -5 -6z"/>
<path d="M28838 9623 c7 -3 16 -2 19 1 4 3 -2 6 -13 5 -11 0 -14 -3 -6 -6z"/>
<path d="M15835 9599 c-4 -6 -5 -12 -2 -15 2 -3 7 2 10 11 7 17 1 20 -8 4z"/>
<path d="M21515 9580 c10 -11 20 -20 23 -20 3 0 -3 9 -13 20 -10 11 -20 20
-23 20 -3 0 3 -9 13 -20z"/>
<path d="M22536 9587 c3 -10 9 -15 12 -12 3 3 0 11 -7 18 -10 9 -11 8 -5 -6z"/>
<path d="M11950 9589 c0 -8 20 -56 59 -142 15 -34 45 -106 67 -161 21 -54 40
-94 41 -89 2 5 -25 79 -60 164 -60 144 -106 242 -107 228z"/>
<path d="M12590 9587 c0 -2 11 -25 25 -53 14 -27 23 -38 19 -24 -11 41 -44 99
-44 77z"/>
<path d="M27789 9573 c-13 -16 -12 -17 4 -4 16 13 21 21 13 21 -2 0 -10 -8
-17 -17z"/>
<path d="M31938 9558 c-15 -15 -23 -28 -19 -28 9 0 56 49 50 53 -2 1 -16 -10
-31 -25z"/>
<path d="M29015 9570 c3 -5 11 -10 16 -10 6 0 7 5 4 10 -3 6 -11 10 -16 10 -6
0 -7 -4 -4 -10z"/>
<path d="M29560 9571 c0 -10 39 -46 43 -40 2 2 -7 14 -20 26 -13 12 -23 19
-23 14z"/>
<path d="M20625 9550 c-3 -6 1 -7 9 -4 18 7 21 14 7 14 -6 0 -13 -4 -16 -10z"/>
<path d="M29083 9553 c9 -2 25 -2 35 0 9 3 1 5 -18 5 -19 0 -27 -2 -17 -5z"/>
<path d="M4236 9518 c-3 -13 -5 -36 -5 -53 1 -21 4 -15 10 20 8 52 6 72 -5 33z"/>
<path d="M26881 9524 c0 -11 3 -14 6 -6 3 7 2 16 -1 19 -3 4 -6 -2 -5 -13z"/>
<path d="M21570 9526 c0 -2 8 -10 18 -17 15 -13 16 -12 3 4 -13 16 -21 21 -21
13z"/>
<path d="M30220 8507 l5 -1022 3 1014 c1 558 -1 1018 -5 1022 -5 5 -6 -452 -3
-1014z"/>
<path d="M18691 9495 c1 -19 18 -51 18 -35 0 8 -4 22 -9 30 -5 8 -9 11 -9 5z"/>
<path d="M12675 9400 c34 -79 45 -101 45 -88 0 12 -62 153 -72 163 -5 6 7 -28
27 -75z"/>
<path d="M21625 9456 c10 -14 19 -26 22 -26 7 0 -17 39 -28 46 -6 3 -3 -5 6
-20z"/>
<path d="M22576 9445 c8 -37 14 -45 14 -19 0 10 -5 26 -10 34 -8 11 -9 7 -4
-15z"/>
<path d="M15792 9440 c0 -14 2 -19 5 -12 2 6 2 18 0 25 -3 6 -5 1 -5 -13z"/>
<path d="M23166 9443 c-6 -14 -5 -15 5 -6 7 7 10 15 7 18 -3 3 -9 -2 -12 -12z"/>
<path d="M27705 9439 c-4 -6 -5 -12 -2 -15 2 -3 7 2 10 11 7 17 1 20 -8 4z"/>
<path d="M18711 9414 c0 -11 3 -14 6 -6 3 7 2 16 -1 19 -3 4 -6 -2 -5 -13z"/>
<path d="M26862 9410 c0 -14 2 -19 5 -12 2 6 2 18 0 25 -3 6 -5 1 -5 -13z"/>
<path d="M21650 9411 c0 -6 4 -13 10 -16 6 -3 7 1 4 9 -7 18 -14 21 -14 7z"/>
<path d="M4220 9386 c0 -17 -26 -53 -82 -113 -204 -220 -330 -406 -487 -720
-69 -139 -45 -106 35 47 150 287 254 441 434 640 75 83 110 130 110 146 0 13
-2 24 -5 24 -3 0 -5 -11 -5 -24z"/>
<path d="M15781 9394 c0 -11 3 -14 6 -6 3 7 2 16 -1 19 -3 4 -6 -2 -5 -13z"/>
<path d="M18722 9370 c0 -14 2 -19 5 -12 2 6 2 18 0 25 -3 6 -5 1 -5 -13z"/>
<path d="M20379 9363 l-24 -28 28 24 c25 23 32 31 24 31 -2 0 -14 -12 -28 -27z"/>
<path d="M23126 9355 c-9 -26 -7 -32 5 -12 6 10 9 21 6 23 -2 3 -7 -2 -11 -11z"/>
<path d="M15771 9334 c0 -11 3 -14 6 -6 3 7 2 16 -1 19 -3 4 -6 -2 -5 -13z"/>
<path d="M4492 9243 c-27 -54 -71 -145 -96 -202 l-46 -104 0 -228 c0 -211 29
-602 46 -619 3 -3 4 20 1 50 -3 30 -12 141 -21 245 -11 120 -16 260 -14 380
l3 190 39 80 c21 44 63 129 93 189 30 59 52 110 50 112 -2 2 -27 -40 -55 -93z"/>
<path d="M18732 9300 c0 -14 2 -19 5 -12 2 6 2 18 0 25 -3 6 -5 1 -5 -13z"/>
<path d="M20325 8010 c0 -718 1 -1011 2 -652 2 358 2 946 0 1305 -1 358 -2 65
-2 -653z"/>
<path d="M12720 9293 c0 -4 5 -15 10 -23 8 -13 10 -13 10 2 0 9 -4 20 -10 23
-5 3 -10 3 -10 -2z"/>
<path d="M15763 9250 c0 -25 2 -35 4 -22 2 12 2 32 0 45 -2 12 -4 2 -4 -23z"/>
<path d="M27700 9271 c0 -6 4 -13 10 -16 6 -3 7 1 4 9 -7 18 -14 21 -14 7z"/>
<path d="M22612 9250 c0 -14 2 -19 5 -12 2 6 2 18 0 25 -3 6 -5 1 -5 -13z"/>
<path d="M17941 9244 c0 -11 3 -14 6 -6 3 7 2 16 -1 19 -3 4 -6 -2 -5 -13z"/>
<path d="M26470 9255 c0 -5 5 -17 10 -25 5 -8 10 -10 10 -5 0 6 -5 17 -10 25
-5 8 -10 11 -10 5z"/>
<path d="M12741 9243 c0 -5 11 -30 25 -58 24 -51 23 -29 -2 32 -13 30 -25 43
-23 26z"/>
<path d="M18744 9080 c0 -91 2 -128 3 -82 2 45 2 119 0 165 -1 45 -3 8 -3 -83z"/>
<path d="M16553 9175 c0 -27 2 -38 4 -22 2 15 2 37 0 50 -2 12 -4 0 -4 -28z"/>
<path d="M21722 9200 c0 -14 2 -19 5 -12 2 6 2 18 0 25 -3 6 -5 1 -5 -13z"/>
<path d="M17952 9190 c0 -14 2 -19 5 -12 2 6 2 18 0 25 -3 6 -5 1 -5 -13z"/>
<path d="M12120 9175 c0 -9 23 -85 40 -130 24 -63 76 -266 95 -370 4 -22 10
-34 12 -28 6 17 -31 178 -78 338 -36 124 -68 212 -69 190z"/>
<path d="M27765 9150 c10 -11 20 -20 23 -20 3 0 -3 9 -13 20 -10 11 -20 20
-23 20 -3 0 3 -9 13 -20z"/>
<path d="M21732 9130 c0 -19 2 -27 5 -17 2 9 2 25 0 35 -3 9 -5 1 -5 -18z"/>
<path d="M26862 9130 c0 -19 2 -27 5 -17 2 9 2 25 0 35 -3 9 -5 1 -5 -18z"/>
<path d="M12790 9125 c0 -5 5 -17 10 -25 5 -8 10 -10 10 -5 0 6 -5 17 -10 25
-5 8 -10 11 -10 5z"/>
<path d="M22622 9100 c0 -14 2 -19 5 -12 2 6 2 18 0 25 -3 6 -5 1 -5 -13z"/>
<path d="M26521 9084 c0 -11 3 -14 6 -6 3 7 2 16 -1 19 -3 4 -6 -2 -5 -13z"/>
<path d="M12817 9060 c3 -14 14 -43 24 -65 11 -22 16 -29 13 -15 -3 14 -15 43
-25 65 -10 22 -16 29 -12 15z"/>
<path d="M16553 9030 c0 -30 2 -43 4 -27 2 15 2 39 0 55 -2 15 -4 2 -4 -28z"/>
<path d="M26531 9044 c0 -11 3 -14 6 -6 3 7 2 16 -1 19 -3 4 -6 -2 -5 -13z"/>
<path d="M23021 9014 c0 -11 3 -14 6 -6 3 7 2 16 -1 19 -3 4 -6 -2 -5 -13z"/>
<path d="M26881 9004 c0 -11 3 -14 6 -6 3 7 2 16 -1 19 -3 4 -6 -2 -5 -13z"/>
<path d="M26542 8995 c0 -11 4 -31 8 -45 6 -20 8 -21 8 -5 0 11 -4 31 -8 45
-6 20 -8 21 -8 5z"/>
<path d="M22635 7855 c0 -632 1 -890 2 -572 2 318 2 836 0 1150 -1 315 -2 55
-2 -578z"/>
<path d="M23012 8970 c0 -14 2 -19 5 -12 2 6 2 18 0 25 -3 6 -5 1 -5 -13z"/>
<path d="M21742 7839 c-2 -1029 0 -1147 14 -1165 8 -10 12 -12 7 -4 -4 8 -10
533 -13 1165 l-5 1150 -3 -1146z"/>
<path d="M15763 8935 c0 -22 2 -30 4 -17 2 12 2 30 0 40 -3 9 -5 -1 -4 -23z"/>
<path d="M28050 8966 c0 -2 7 -7 16 -10 8 -3 12 -2 9 4 -6 10 -25 14 -25 6z"/>
<path d="M28100 8946 c0 -2 7 -7 16 -10 8 -3 12 -2 9 4 -6 10 -25 14 -25 6z"/>
<path d="M23001 8914 c0 -11 3 -14 6 -6 3 7 2 16 -1 19 -3 4 -6 -2 -5 -13z"/>
<path d="M28160 8926 c0 -2 7 -7 16 -10 8 -3 12 -2 9 4 -6 10 -25 14 -25 6z"/>
<path d="M12870 8915 c0 -5 5 -17 10 -25 5 -8 10 -10 10 -5 0 6 -5 17 -10 25
-5 8 -10 11 -10 5z"/>
<path d="M28220 8906 c0 -2 7 -7 16 -10 8 -3 12 -2 9 4 -6 10 -25 14 -25 6z"/>
<path d="M16571 8884 c0 -11 3 -14 6 -6 3 7 2 16 -1 19 -3 4 -6 -2 -5 -13z"/>
<path d="M18731 8884 c0 -11 3 -14 6 -6 3 7 2 16 -1 19 -3 4 -6 -2 -5 -13z"/>
<path d="M26562 8885 c0 -11 4 -33 8 -50 7 -27 8 -27 8 -5 0 14 -4 36 -8 50
-6 20 -8 21 -8 5z"/>
<path d="M22992 8860 c0 -19 2 -27 5 -17 2 9 2 25 0 35 -3 9 -5 1 -5 -18z"/>
<path d="M15772 8860 c0 -14 2 -19 5 -12 2 6 2 18 0 25 -3 6 -5 1 -5 -13z"/>
<path d="M12890 8866 c0 -13 63 -187 66 -183 2 2 -10 43 -26 92 -27 81 -40
110 -40 91z"/>
<path d="M18722 8815 c0 -16 2 -22 5 -12 2 9 2 23 0 30 -3 6 -5 -1 -5 -18z"/>
<path d="M23902 8820 c0 -14 2 -19 5 -12 2 6 2 18 0 25 -3 6 -5 1 -5 -13z"/>
<path d="M22982 8795 c0 -16 2 -22 5 -12 2 9 2 23 0 30 -3 6 -5 -1 -5 -18z"/>
<path d="M15781 8794 c0 -11 3 -14 6 -6 3 7 2 16 -1 19 -3 4 -6 -2 -5 -13z"/>
<path d="M28550 8796 c0 -2 7 -7 16 -10 8 -3 12 -2 9 4 -6 10 -25 14 -25 6z"/>
<path d="M28610 8770 c8 -5 20 -10 25 -10 6 0 3 5 -5 10 -8 5 -19 10 -25 10
-5 0 -3 -5 5 -10z"/>
<path d="M15792 8740 c0 -14 2 -19 5 -12 2 6 2 18 0 25 -3 6 -5 1 -5 -13z"/>
<path d="M25672 8740 c0 -14 2 -19 5 -12 2 6 2 18 0 25 -3 6 -5 1 -5 -13z"/>
<path d="M28670 8750 c8 -5 20 -10 25 -10 6 0 3 5 -5 10 -8 5 -19 10 -25 10
-5 0 -3 -5 5 -10z"/>
<path d="M26582 8710 c0 -19 2 -27 5 -17 2 9 2 25 0 35 -3 9 -5 1 -5 -18z"/>
<path d="M22973 8650 c0 -25 2 -35 4 -22 2 12 2 32 0 45 -2 12 -4 2 -4 -23z"/>
<path d="M28840 8686 c0 -2 7 -7 16 -10 8 -3 12 -2 9 4 -6 10 -25 14 -25 6z"/>
<path d="M15811 8664 c0 -11 3 -14 6 -6 3 7 2 16 -1 19 -3 4 -6 -2 -5 -13z"/>
<path d="M12960 8663 c0 -16 43 -143 47 -139 5 4 -37 146 -43 146 -2 0 -4 -3
-4 -7z"/>
<path d="M23884 8495 c0 -88 2 -123 3 -77 2 46 2 118 0 160 -1 42 -3 5 -3 -83z"/>
<path d="M26593 8595 c0 -33 2 -45 4 -27 2 18 2 45 0 60 -2 15 -4 0 -4 -33z"/>
<path d="M12273 8590 c4 -19 14 -96 23 -170 16 -132 24 -173 24 -114 -1 50
-37 305 -45 312 -4 4 -5 -9 -2 -28z"/>
<path d="M3946 8588 c-13 -19 -70 -140 -121 -253 -66 -148 -160 -419 -200
-575 -72 -286 -90 -428 -89 -715 1 -257 14 -388 60 -610 44 -209 51 -226 198
-485 150 -263 206 -364 326 -590 150 -282 225 -417 314 -560 63 -101 385 -394
611 -557 147 -106 447 -277 565 -323 19 -7 51 -20 70 -28 19 -8 44 -18 55 -22
11 -5 45 -16 75 -25 30 -9 63 -20 72 -26 10 -5 27 -9 38 -9 11 0 28 -4 38 -9
9 -5 53 -17 97 -26 44 -10 94 -24 112 -31 17 -8 40 -14 51 -14 12 0 32 -4 45
-9 38 -15 316 -36 327 -25 5 5 -48 70 -127 154 -278 299 -318 362 -623 993
-46 96 -59 114 -107 150 -158 120 -224 177 -403 352 -141 137 -226 211 -305
265 -138 94 -308 261 -402 395 -92 129 -287 435 -361 565 -11 19 -36 64 -57
100 -59 104 -163 320 -189 396 -17 48 -25 61 -25 42 -1 -30 23 -152 37 -189 5
-13 17 -49 27 -79 10 -30 22 -59 26 -64 5 -6 9 -15 9 -21 0 -7 41 -88 91 -181
152 -282 189 -361 189 -399 0 -32 -2 -35 -19 -26 -31 17 -116 140 -180 261
-113 215 -244 574 -276 753 -15 84 -17 129 -10 300 4 111 8 238 8 282 2 283
25 575 61 780 7 44 12 82 11 83 -2 2 -10 -7 -19 -20z"/>
<path d="M15830 8605 c0 -5 5 -17 10 -25 5 -8 10 -10 10 -5 0 6 -5 17 -10 25
-5 8 -10 11 -10 5z"/>
<path d="M18656 8585 c-9 -26 -7 -32 5 -12 6 10 9 21 6 23 -2 3 -7 -2 -11 -11z"/>
<path d="M15850 8555 c0 -5 5 -17 10 -25 5 -8 10 -10 10 -5 0 6 -5 17 -10 25
-5 8 -10 11 -10 5z"/>
<path d="M18636 8535 c-9 -26 -7 -32 5 -12 6 10 9 21 6 23 -2 3 -7 -2 -11 -11z"/>
<path d="M22973 8450 c0 -47 2 -66 4 -42 2 23 2 61 0 85 -2 23 -4 4 -4 -43z"/>
<path d="M29130 8526 c0 -2 8 -10 18 -17 15 -13 16 -12 3 4 -13 16 -21 21 -21
13z"/>
<path d="M13015 8490 c16 -71 94 -353 94 -340 1 19 -74 307 -89 340 l-10 25 5
-25z"/>
<path d="M18615 8489 c-4 -6 -5 -12 -2 -15 2 -3 7 2 10 11 7 17 1 20 -8 4z"/>
<path d="M27205 8480 c10 -11 20 -20 23 -20 3 0 -3 9 -13 20 -10 11 -20 20
-23 20 -3 0 3 -9 13 -20z"/>
<path d="M3575 8393 c-40 -87 -106 -255 -102 -259 2 -2 23 44 47 104 23 59 54
129 67 155 13 27 22 51 20 54 -3 2 -17 -22 -32 -54z"/>
<path d="M18586 8433 c-6 -14 -5 -15 5 -6 7 7 10 15 7 18 -3 3 -9 -2 -12 -12z"/>
<path d="M17428 8433 c7 -3 16 -2 19 1 4 3 -2 6 -13 5 -11 0 -14 -3 -6 -6z"/>
<path d="M17148 8423 c7 -3 16 -2 19 1 4 3 -2 6 -13 5 -11 0 -14 -3 -6 -6z"/>
<path d="M15920 8411 c0 -6 4 -13 10 -16 6 -3 7 1 4 9 -7 18 -14 21 -14 7z"/>
<path d="M29290 8366 c0 -2 8 -10 18 -17 15 -13 16 -12 3 4 -13 16 -21 21 -21
13z"/>
<path d="M26593 8315 c0 -27 2 -38 4 -22 2 15 2 37 0 50 -2 12 -4 0 -4 -28z"/>
<path d="M4128 8300 c-66 -222 -65 -395 6 -797 62 -347 137 -624 233 -858 100
-242 148 -321 408 -664 38 -51 168 -191 172 -187 4 4 -65 121 -152 257 -101
157 -266 488 -348 694 -153 388 -254 870 -287 1370 -6 99 -12 194 -13 210 -2
26 -5 22 -19 -25z"/>
<path d="M12880 8320 c0 -11 -4 -20 -9 -20 -25 0 -49 -330 -61 -815 -8 -385
-16 -540 -41 -830 -14 -174 -23 -325 -17 -325 12 0 117 182 176 305 88 182
134 316 173 501 20 93 24 138 24 314 0 131 -5 228 -13 270 -8 36 -23 110 -34
165 -22 112 -68 256 -103 325 -12 25 -26 56 -30 68 -8 27 -40 62 -55 62 -5 0
-10 -9 -10 -20z"/>
<path d="M27467 8319 c7 -7 15 -10 18 -7 3 3 -2 9 -12 12 -14 6 -15 5 -6 -5z"/>
<path d="M16007 8285 c12 -16 34 -41 49 -55 19 -17 15 -10 -10 20 -53 61 -63
71 -39 35z"/>
<path d="M18474 8268 l-19 -23 23 19 c21 18 27 26 19 26 -2 0 -12 -10 -23 -22z"/>
<path d="M12323 7925 c0 -331 0 -335 10 -167 6 111 6 234 0 340 -9 160 -10
153 -10 -173z"/>
<path d="M22982 8225 c0 -16 2 -22 5 -12 2 9 2 23 0 30 -3 6 -5 -1 -5 -18z"/>
<path d="M26582 8225 c0 -16 2 -22 5 -12 2 9 2 23 0 30 -3 6 -5 -1 -5 -18z"/>
<path d="M27708 8228 c5 -5 16 -8 23 -6 8 3 3 7 -10 11 -17 4 -21 3 -13 -5z"/>
<path d="M25671 8214 c0 -11 3 -14 6 -6 3 7 2 16 -1 19 -3 4 -6 -2 -5 -13z"/>
<path d="M27777 8209 c7 -7 15 -10 18 -7 3 3 -2 9 -12 12 -14 6 -15 5 -6 -5z"/>
<path d="M16135 8150 c27 -27 51 -50 54 -50 3 0 -17 23 -44 50 -27 28 -51 50
-54 50 -3 0 17 -22 44 -50z"/>
<path d="M27837 8189 c7 -7 15 -10 18 -7 3 3 -2 9 -12 12 -14 6 -15 5 -6 -5z"/>
<path d="M3611 8149 c-14 -17 -36 -56 -49 -88 -140 -334 -180 -493 -189 -751
-4 -142 -3 -162 19 -235 19 -66 27 -81 45 -83 28 -4 30 5 38 183 4 77 15 194
26 260 19 120 22 136 53 295 19 95 43 186 57 212 5 10 9 26 9 37 0 10 9 54 20
97 11 44 20 85 20 92 0 22 -24 13 -49 -19z"/>
<path d="M23902 8155 c0 -16 2 -22 5 -12 2 9 2 23 0 30 -3 6 -5 -1 -5 -18z"/>
<path d="M22992 8140 c0 -19 2 -27 5 -17 2 9 2 25 0 35 -3 9 -5 1 -5 -18z"/>
<path d="M27960 8156 c0 -2 7 -7 16 -10 8 -3 12 -2 9 4 -6 10 -25 14 -25 6z"/>
<path d="M26572 8120 c0 -14 2 -19 5 -12 2 6 2 18 0 25 -3 6 -5 1 -5 -13z"/>
<path d="M18319 8113 c-13 -16 -12 -17 4 -4 9 7 17 15 17 17 0 8 -8 3 -21 -13z"/>
<path d="M3452 8093 c-20 -50 -62 -185 -61 -197 0 -6 18 40 40 103 21 63 37
116 35 118 -2 2 -8 -9 -14 -24z"/>
<path d="M13111 8103 c1 -10 5 -29 9 -43 7 -22 8 -21 9 12 1 20 -3 40 -9 43
-5 3 -10 -2 -9 -12z"/>
<path d="M23001 8074 c0 -11 3 -14 6 -6 3 7 2 16 -1 19 -3 4 -6 -2 -5 -13z"/>
<path d="M25651 8074 c0 -11 3 -14 6 -6 3 7 2 16 -1 19 -3 4 -6 -2 -5 -13z"/>
<path d="M26561 8074 c0 -11 3 -14 6 -6 3 7 2 16 -1 19 -3 4 -6 -2 -5 -13z"/>
<path d="M4400 8064 c0 -77 123 -582 147 -604 3 -3 3 6 -1 20 -51 176 -97 366
-116 478 -19 110 -30 148 -30 106z"/>
<path d="M13135 8000 c14 -118 36 -276 40 -285 15 -42 -18 239 -35 290 l-10
30 5 -35z"/>
<path d="M23012 8010 c0 -14 2 -19 5 -12 2 6 2 18 0 25 -3 6 -5 1 -5 -13z"/>
<path d="M26551 8004 c0 -11 3 -14 6 -6 3 7 2 16 -1 19 -3 4 -6 -2 -5 -13z"/>
<path d="M18104 7974 c-18 -14 -18 -15 4 -4 12 6 22 13 22 15 0 8 -5 6 -26
-11z"/>
<path d="M28410 7986 c0 -3 9 -10 20 -16 11 -6 20 -8 20 -6 0 3 -9 10 -20 16
-11 6 -20 8 -20 6z"/>
<path d="M26541 7964 c0 -11 3 -14 6 -6 3 7 2 16 -1 19 -3 4 -6 -2 -5 -13z"/>
<path d="M18050 7950 c-8 -5 -10 -10 -5 -10 6 0 17 5 25 10 8 5 11 10 5 10 -5
0 -17 -5 -25 -10z"/>
<path d="M28460 7956 c0 -2 8 -10 18 -17 15 -13 16 -12 3 4 -13 16 -21 21 -21
13z"/>
<path d="M29472 7940 c0 -14 2 -19 5 -12 2 6 2 18 0 25 -3 6 -5 1 -5 -13z"/>
<path d="M16149 7913 l-24 -28 28 24 c25 23 32 31 24 31 -2 0 -14 -12 -28 -27z"/>
<path d="M23031 7914 c0 -11 3 -14 6 -6 3 7 2 16 -1 19 -3 4 -6 -2 -5 -13z"/>
<path d="M28500 7926 c0 -2 8 -10 18 -17 15 -13 16 -12 3 4 -13 16 -21 21 -21
13z"/>
<path d="M17960 7910 c-8 -5 -10 -10 -5 -10 6 0 17 5 25 10 8 5 11 10 5 10 -5
0 -17 -5 -25 -10z"/>
<path d="M29483 7865 c0 -27 2 -38 4 -22 2 15 2 37 0 50 -2 12 -4 0 -4 -28z"/>
<path d="M17900 7890 c-8 -5 -10 -10 -5 -10 6 0 17 5 25 10 8 5 11 10 5 10 -5
0 -17 -5 -25 -10z"/>
<path d="M26521 7874 c0 -11 3 -14 6 -6 3 7 2 16 -1 19 -3 4 -6 -2 -5 -13z"/>
<path d="M3377 7866 c-4 -10 -7 -25 -6 -34 0 -11 4 -9 10 7 5 13 8 29 6 35 -2
5 -6 2 -10 -8z"/>
<path d="M17835 7870 c-13 -6 -15 -9 -5 -9 8 0 22 4 30 9 18 12 2 12 -25 0z"/>
<path d="M17778 7853 c7 -3 16 -2 19 1 4 3 -2 6 -13 5 -11 0 -14 -3 -6 -6z"/>
<path d="M28570 7856 c0 -2 8 -10 18 -17 15 -13 16 -12 3 4 -13 16 -21 21 -21
13z"/>
<path d="M17738 7843 c7 -3 16 -2 19 1 4 3 -2 6 -13 5 -11 0 -14 -3 -6 -6z"/>
<path d="M23050 7835 c0 -5 5 -17 10 -25 5 -8 10 -10 10 -5 0 6 -5 17 -10 25
-5 8 -10 11 -10 5z"/>
<path d="M16858 7823 c6 -2 18 -2 25 0 6 3 1 5 -13 5 -14 0 -19 -2 -12 -5z"/>
<path d="M16918 7813 c7 -3 16 -2 19 1 4 3 -2 6 -13 5 -11 0 -14 -3 -6 -6z"/>
<path d="M16029 7793 c-13 -16 -12 -17 4 -4 9 7 17 15 17 17 0 8 -8 3 -21 -13z"/>
<path d="M17033 7803 c9 -2 23 -2 30 0 6 3 -1 5 -18 5 -16 0 -22 -2 -12 -5z"/>
<path d="M17503 7803 c9 -2 23 -2 30 0 6 3 -1 5 -18 5 -16 0 -22 -2 -12 -5z"/>
<path d="M3357 7793 c-7 -11 -37 -159 -36 -175 0 -7 11 30 24 82 21 88 25 114
12 93z"/>
<path d="M17103 7793 c9 -2 25 -2 35 0 9 3 1 5 -18 5 -19 0 -27 -2 -17 -5z"/>
<path d="M17418 7793 c12 -2 30 -2 40 0 9 3 -1 5 -23 4 -22 0 -30 -2 -17 -4z"/>
<path d="M29482 7729 c-1 -31 -4 -72 -7 -90 l-5 -34 11 33 c5 19 8 59 6 90
l-3 57 -2 -56z"/>
<path d="M16724 7738 l-29 -33 33 29 c30 28 37 36 29 36 -2 0 -16 -15 -33 -32z"/>
<path d="M15975 7710 c-9 -16 -13 -30 -11 -30 3 0 12 14 21 30 9 17 13 30 11
30 -3 0 -12 -13 -21 -30z"/>
<path d="M23091 7715 c1 -19 18 -51 18 -35 0 8 -4 22 -9 30 -5 8 -9 11 -9 5z"/>
<path d="M16674 7688 c-4 -7 -14 -24 -22 -38 -14 -24 -13 -24 3 -5 20 24 37
55 31 55 -3 0 -8 -6 -12 -12z"/>
<path d="M28652 7680 c0 -14 2 -19 5 -12 2 6 2 18 0 25 -3 6 -5 1 -5 -13z"/>
<path d="M26456 7675 c-9 -26 -7 -32 5 -12 6 10 9 21 6 23 -2 3 -7 -2 -11 -11z"/>
<path d="M13183 7480 c0 -134 2 -188 7 -155 11 65 11 258 1 315 -6 29 -8 -27
-8 -160z"/>
<path d="M15946 7653 c-6 -14 -5 -15 5 -6 7 7 10 15 7 18 -3 3 -9 -2 -12 -12z"/>
<path d="M26435 7619 c-4 -6 -5 -12 -2 -15 2 -3 7 2 10 11 7 17 1 20 -8 4z"/>
<path d="M4315 7610 c-8 -13 2 -181 16 -265 19 -113 53 -250 75 -302 8 -17 14
-37 14 -45 0 -31 117 -310 162 -388 35 -59 73 -115 81 -118 4 -2 7 -10 7 -18
0 -8 7 -17 15 -20 8 -4 13 -10 10 -14 -6 -9 60 -70 75 -70 21 0 15 86 -11 163
-10 31 -19 63 -19 71 0 8 -9 36 -21 63 -11 26 -21 60 -21 76 -1 15 -4 27 -8
27 -4 0 -17 24 -28 53 -54 137 -91 236 -102 272 -7 22 -17 49 -21 60 -5 11
-26 68 -48 128 -22 59 -54 136 -70 171 -17 35 -31 73 -31 84 0 12 -8 27 -18
34 -10 7 -21 21 -25 31 -7 19 -22 22 -32 7z"/>
<path d="M16626 7594 c-4 -14 -5 -28 -3 -31 3 -2 8 8 11 23 4 14 5 28 3 31 -3
2 -8 -8 -11 -23z"/>
<path d="M28652 7600 c0 -14 2 -19 5 -12 2 6 2 18 0 25 -3 6 -5 1 -5 -13z"/>
<path d="M3311 7575 c-1 -12 -7 -27 -13 -33 -10 -10 -13 -82 -12 -285 0 -242
2 -275 18 -302 l18 -30 -7 35 c-29 165 -32 435 -5 558 6 28 9 58 7 65 -3 6 -6
3 -6 -8z"/>
<path d="M23140 7585 c0 -5 5 -17 10 -25 5 -8 10 -10 10 -5 0 6 -5 17 -10 25
-5 8 -10 11 -10 5z"/>
<path d="M12302 7470 c-27 -246 -37 -305 -84 -500 -51 -214 -69 -253 -186
-415 -204 -279 -445 -549 -882 -985 -333 -334 -635 -571 -990 -780 -41 -24
-106 -62 -145 -85 -38 -23 -105 -58 -149 -79 -43 -20 -76 -39 -74 -42 13 -13
328 164 543 304 332 216 540 386 825 672 484 486 833 888 970 1118 67 115 137
395 175 710 9 73 15 147 13 165 -2 17 -9 -20 -16 -83z"/>
<path d="M29461 7554 c0 -11 3 -14 6 -6 3 7 2 16 -1 19 -3 4 -6 -2 -5 -13z"/>
<path d="M28636 7525 c-9 -26 -7 -32 5 -12 6 10 9 21 6 23 -2 3 -7 -2 -11 -11z"/>
<path d="M15901 7514 c0 -11 3 -14 6 -6 3 7 2 16 -1 19 -3 4 -6 -2 -5 -13z"/>
<path d="M29452 7510 c0 -14 2 -19 5 -12 2 6 2 18 0 25 -3 6 -5 1 -5 -13z"/>
<path d="M24170 7495 c13 -14 26 -25 28 -25 3 0 -5 11 -18 25 -13 14 -26 25
-28 25 -3 0 5 -11 18 -25z"/>
<path d="M16621 7494 c0 -11 3 -14 6 -6 3 7 2 16 -1 19 -3 4 -6 -2 -5 -13z"/>
<path d="M23180 7491 c0 -6 4 -13 10 -16 6 -3 7 1 4 9 -7 18 -14 21 -14 7z"/>
<path d="M15892 7465 c0 -16 2 -22 5 -12 2 9 2 23 0 30 -3 6 -5 -1 -5 -18z"/>
<path d="M16631 7454 c0 -11 3 -14 6 -6 3 7 2 16 -1 19 -3 4 -6 -2 -5 -13z"/>
<path d="M31136 7447 c3 -10 9 -15 12 -12 3 3 0 11 -7 18 -10 9 -11 8 -5 -6z"/>
<path d="M4552 7439 c4 -12 30 -87 126 -362 9 -27 18 -45 19 -40 4 12 -97 320
-117 355 -6 10 -10 24 -10 32 0 8 -5 18 -12 22 -7 5 -9 2 -6 -7z"/>
<path d="M27138 7433 c7 -3 16 -2 19 1 4 3 -2 6 -13 5 -11 0 -14 -3 -6 -6z"/>
<path d="M30233 7405 c0 -22 2 -30 4 -17 2 12 2 30 0 40 -3 9 -5 -1 -4 -23z"/>
<path d="M16650 7411 c5 -11 15 -23 21 -27 6 -3 3 5 -6 20 -20 30 -30 35 -15
7z"/>
<path d="M23230 7400 c6 -11 13 -20 16 -20 2 0 0 9 -6 20 -6 11 -13 20 -16 20
-2 0 0 -9 6 -20z"/>
<path d="M26979 7403 c-13 -16 -12 -17 4 -4 9 7 17 15 17 17 0 8 -8 3 -21 -13z"/>
<path d="M27190 7416 c0 -2 9 -6 20 -9 11 -3 18 -1 14 4 -5 9 -34 13 -34 5z"/>
<path d="M31156 7407 c3 -10 9 -15 12 -12 3 3 0 11 -7 18 -10 9 -11 8 -5 -6z"/>
<path d="M28534 7378 l-19 -23 23 19 c12 11 22 21 22 23 0 8 -8 2 -26 -19z"/>
<path d="M15893 7340 c0 -25 2 -35 4 -22 2 12 2 32 0 45 -2 12 -4 2 -4 -23z"/>
<path d="M27330 7370 c8 -5 20 -10 25 -10 6 0 3 5 -5 10 -8 5 -19 10 -25 10
-5 0 -3 -5 5 -10z"/>
<path d="M29406 7353 c-6 -14 -5 -15 5 -6 7 7 10 15 7 18 -3 3 -9 -2 -12 -12z"/>
<path d="M31788 7363 c6 -2 18 -2 25 0 6 3 1 5 -13 5 -14 0 -19 -2 -12 -5z"/>
<path d="M31190 7356 c0 -2 8 -10 18 -17 15 -13 16 -12 3 4 -13 16 -21 21 -21
13z"/>
<path d="M31875 7330 c10 -11 20 -20 23 -20 3 0 -3 9 -13 20 -10 11 -20 20
-23 20 -3 0 3 -9 13 -20z"/>
<path d="M27485 7330 c11 -5 29 -8 40 -8 16 0 15 2 -5 8 -34 11 -60 11 -35 0z"/>
<path d="M27558 7313 c7 -3 16 -2 19 1 4 3 -2 6 -13 5 -11 0 -14 -3 -6 -6z"/>
<path d="M27620 7300 c14 -4 34 -8 45 -8 16 0 15 2 -5 8 -14 4 -34 8 -45 8
-16 0 -15 -2 5 -8z"/>
<path d="M28378 7303 c7 -3 16 -2 19 1 4 3 -2 6 -13 5 -11 0 -14 -3 -6 -6z"/>
<path d="M31250 7306 c0 -2 7 -7 16 -10 8 -3 12 -2 9 4 -6 10 -25 14 -25 6z"/>
<path d="M26935 7289 c-4 -6 -5 -12 -2 -15 2 -3 7 2 10 11 7 17 1 20 -8 4z"/>
<path d="M30251 7284 c0 -11 3 -14 6 -6 3 7 2 16 -1 19 -3 4 -6 -2 -5 -13z"/>
<path d="M16893 7283 c9 -2 25 -2 35 0 9 3 1 5 -18 5 -19 0 -27 -2 -17 -5z"/>
<path d="M27733 7283 c9 -2 23 -2 30 0 6 3 -1 5 -18 5 -16 0 -22 -2 -12 -5z"/>
<path d="M28283 7283 c9 -2 23 -2 30 0 6 3 -1 5 -18 5 -16 0 -22 -2 -12 -5z"/>
<path d="M31310 7280 c8 -5 20 -10 25 -10 6 0 3 5 -5 10 -8 5 -19 10 -25 10
-5 0 -3 -5 5 -10z"/>
<path d="M15902 7255 c0 -16 2 -22 5 -12 2 9 2 23 0 30 -3 6 -5 -1 -5 -18z"/>
<path d="M16963 7273 c9 -2 23 -2 30 0 6 3 -1 5 -18 5 -16 0 -22 -2 -12 -5z"/>
<path d="M24588 7273 c7 -3 16 -2 19 1 4 3 -2 6 -13 5 -11 0 -14 -3 -6 -6z"/>
<path d="M24968 7273 c7 -3 16 -2 19 1 4 3 -2 6 -13 5 -11 0 -14 -3 -6 -6z"/>
<path d="M27793 7273 c9 -2 23 -2 30 0 6 3 -1 5 -18 5 -16 0 -22 -2 -12 -5z"/>
<path d="M28238 7273 c7 -3 16 -2 19 1 4 3 -2 6 -13 5 -11 0 -14 -3 -6 -6z"/>
<path d="M17108 7263 c12 -2 32 -2 45 0 12 2 2 4 -23 4 -25 0 -35 -2 -22 -4z"/>
<path d="M24658 7263 c6 -2 18 -2 25 0 6 3 1 5 -13 5 -14 0 -19 -2 -12 -5z"/>
<path d="M24888 7263 c7 -3 16 -2 19 1 4 3 -2 6 -13 5 -11 0 -14 -3 -6 -6z"/>
<path d="M27963 7263 c37 -2 97 -2 135 0 37 2 6 3 -68 3 -74 0 -105 -1 -67 -3z"/>
<path d="M29365 7259 c-4 -6 -5 -12 -2 -15 2 -3 7 2 10 11 7 17 1 20 -8 4z"/>
<path d="M31373 7263 c9 -2 23 -2 30 0 6 3 -1 5 -18 5 -16 0 -22 -2 -12 -5z"/>
<path d="M31433 7263 c9 -2 23 -2 30 0 6 3 -1 5 -18 5 -16 0 -22 -2 -12 -5z"/>
<path d="M17218 7253 c12 -2 32 -2 45 0 12 2 2 4 -23 4 -25 0 -35 -2 -22 -4z"/>
<path d="M24768 7253 c12 -2 30 -2 40 0 9 3 -1 5 -23 4 -22 0 -30 -2 -17 -4z"/>
<path d="M13157 7155 c-9 -55 -20 -113 -23 -130 -4 -21 -2 -25 4 -15 12 20 45
204 40 227 -2 10 -11 -27 -21 -82z"/>
<path d="M17443 7243 c31 -2 83 -2 115 0 31 2 5 3 -58 3 -63 0 -89 -1 -57 -3z"/>
<path d="M26921 7243 c-1 -6 -4 -20 -7 -30 -5 -17 -5 -17 6 0 6 10 9 23 6 30
-3 9 -5 9 -5 0z"/>
<path d="M17658 7233 c18 -2 45 -2 60 0 15 2 0 4 -33 4 -33 0 -45 -2 -27 -4z"/>
<path d="M17888 7223 c12 -2 32 -2 45 0 12 2 2 4 -23 4 -25 0 -35 -2 -22 -4z"/>
<path d="M17983 7213 c9 -2 23 -2 30 0 6 3 -1 5 -18 5 -16 0 -22 -2 -12 -5z"/>
<path d="M18073 7203 c9 -2 23 -2 30 0 6 3 -1 5 -18 5 -16 0 -22 -2 -12 -5z"/>
<path d="M26184 7188 l-19 -23 23 19 c21 18 27 26 19 26 -2 0 -12 -10 -23 -22z"/>
<path d="M18143 7193 c9 -2 25 -2 35 0 9 3 1 5 -18 5 -19 0 -27 -2 -17 -5z"/>
<path d="M29320 7180 c-6 -11 -8 -20 -6 -20 3 0 10 9 16 20 6 11 8 20 6 20 -3
0 -10 -9 -16 -20z"/>
<path d="M31936 7187 c3 -10 9 -15 12 -12 3 3 0 11 -7 18 -10 9 -11 8 -5 -6z"/>
<path d="M18268 7173 c7 -3 16 -2 19 1 4 3 -2 6 -13 5 -11 0 -14 -3 -6 -6z"/>
<path d="M23410 7145 c13 -14 26 -25 28 -25 3 0 -5 11 -18 25 -13 14 -26 25
-28 25 -3 0 5 -11 18 -25z"/>
<path d="M31957 7109 c4 -13 8 -18 11 -10 2 7 -1 18 -6 23 -8 8 -9 4 -5 -13z"/>
<path d="M26104 7098 l-19 -23 23 19 c12 11 22 21 22 23 0 8 -8 2 -26 -19z"/>
<path d="M30310 7105 c0 -5 5 -17 10 -25 5 -8 10 -10 10 -5 0 6 -5 17 -10 25
-5 8 -10 11 -10 5z"/>
<path d="M26049 7043 l-24 -28 28 24 c15 14 27 26 27 28 0 8 -8 1 -31 -24z"/>
<path d="M31977 7039 c4 -13 8 -18 11 -10 2 7 -1 18 -6 23 -8 8 -9 4 -5 -13z"/>
<path d="M15990 7026 c0 -2 8 -10 18 -17 15 -13 16 -12 3 4 -13 16 -21 21 -21
13z"/>
<path d="M23521 7028 c2 -2 24 -21 49 -43 l45 -40 -40 43 c-21 23 -43 42 -49
42 -5 0 -7 -1 -5 -2z"/>
<path d="M4700 7016 c0 -3 11 -36 25 -73 36 -96 140 -291 295 -553 73 -124
173 -299 222 -390 158 -289 260 -463 318 -540 188 -251 239 -312 394 -468 94
-95 185 -180 201 -188 l30 -15 -25 18 c-35 26 -357 351 -389 393 -14 19 -31
41 -38 50 -6 8 -52 66 -101 129 -83 104 -137 188 -207 316 -15 28 -44 79 -65
115 -20 36 -61 110 -90 165 -29 55 -78 143 -108 195 -31 52 -69 120 -87 150
-17 30 -68 116 -112 190 -138 232 -243 443 -243 487 0 6 -4 15 -10 18 -5 3
-10 4 -10 1z"/>
<path d="M29155 6968 l-40 -43 43 40 c39 36 47 45 39 45 -2 0 -21 -19 -42 -42z"/>
<path d="M30360 7001 c0 -6 4 -13 10 -16 6 -3 7 1 4 9 -7 18 -14 21 -14 7z"/>
<path d="M31991 6995 c1 -19 18 -51 18 -35 0 8 -4 22 -9 30 -5 8 -9 11 -9 5z"/>
<path d="M13117 6966 c-5 -15 -6 -31 -3 -34 8 -8 18 25 14 45 -3 13 -6 10 -11
-11z"/>
<path d="M16050 6955 c13 -14 26 -25 28 -25 3 0 -5 11 -18 25 -13 14 -26 25
-28 25 -3 0 5 -11 18 -25z"/>
<path d="M26841 6954 c0 -11 3 -14 6 -6 3 7 2 16 -1 19 -3 4 -6 -2 -5 -13z"/>
<path d="M32010 6921 c0 -6 4 -13 10 -16 6 -3 7 1 4 9 -7 18 -14 21 -14 7z"/>
<path d="M13076 6837 c-66 -193 -182 -434 -331 -686 -73 -125 -78 -137 -121
-303 -24 -95 -47 -184 -50 -197 -5 -16 -3 -22 3 -18 6 4 13 19 16 34 3 16 20
82 37 148 17 66 35 138 39 160 7 35 37 99 61 130 46 58 243 440 303 585 40 99
81 220 75 225 -2 2 -16 -33 -32 -78z"/>
<path d="M18880 6885 c19 -19 36 -35 39 -35 3 0 -10 16 -29 35 -19 19 -36 35
-39 35 -3 0 10 -16 29 -35z"/>
<path d="M29079 6903 c-13 -16 -12 -17 4 -4 9 7 17 15 17 17 0 8 -8 3 -21 -13z"/>
<path d="M3321 6906 c-2 -15 30 -131 39 -139 4 -5 -1 22 -11 60 -21 75 -27 92
-28 79z"/>
<path d="M30420 6907 c0 -2 15 -16 33 -33 l32 -29 -29 33 c-28 30 -36 37 -36
29z"/>
<path d="M30520 6806 c0 -2 8 -10 18 -17 15 -13 16 -12 3 4 -13 16 -21 21 -21
13z"/>
<path d="M18960 6791 c0 -6 4 -13 10 -16 6 -3 7 1 4 9 -7 18 -14 21 -14 7z"/>
<path d="M3371 6730 c0 -8 4 -22 9 -30 12 -18 12 -2 0 25 -6 13 -9 15 -9 5z"/>
<path d="M24095 6680 c27 -12 43 -12 25 0 -8 5 -22 9 -30 9 -10 0 -8 -3 5 -9z"/>
<path d="M25440 6680 c-9 -6 -10 -10 -3 -10 6 0 15 5 18 10 8 12 4 12 -15 0z"/>
<path d="M27227 6679 c7 -7 15 -10 18 -7 3 3 -2 9 -12 12 -14 6 -15 5 -6 -5z"/>
<path d="M30690 6686 c0 -2 7 -7 16 -10 8 -3 12 -2 9 4 -6 10 -25 14 -25 6z"/>
<path d="M3391 6675 c-1 -14 50 -148 61 -160 5 -5 -3 22 -18 60 -36 97 -43
111 -43 100z"/>
<path d="M15920 6605 c-41 -41 -72 -75 -69 -75 2 0 38 34 79 75 41 41 72 75
69 75 -2 0 -38 -34 -79 -75z"/>
<path d="M19026 6667 c3 -10 9 -15 12 -12 3 3 0 11 -7 18 -10 9 -11 8 -5 -6z"/>
<path d="M20289 6653 c-13 -16 -12 -17 4 -4 9 7 17 15 17 17 0 8 -8 3 -21 -13z"/>
<path d="M22591 6650 c-13 -11 -19 -20 -14 -20 6 0 18 9 28 20 23 25 17 25
-14 0z"/>
<path d="M25380 6660 c-8 -5 -10 -10 -5 -10 6 0 17 5 25 10 8 5 11 10 5 10 -5
0 -17 -5 -25 -10z"/>
<path d="M30747 6659 c7 -7 15 -10 18 -7 3 3 -2 9 -12 12 -14 6 -15 5 -6 -5z"/>
<path d="M31720 6660 c-8 -5 -10 -10 -5 -10 6 0 17 5 25 10 8 5 11 10 5 10 -5
0 -17 -5 -25 -10z"/>
<path d="M24230 6640 c8 -5 20 -10 25 -10 6 0 3 5 -5 10 -8 5 -19 10 -25 10
-5 0 -3 -5 5 -10z"/>
<path d="M25310 6640 c-8 -5 -10 -10 -5 -10 6 0 17 5 25 10 8 5 11 10 5 10 -5
0 -17 -5 -25 -10z"/>
<path d="M27375 6640 c27 -12 43 -12 25 0 -8 5 -22 9 -30 9 -10 0 -8 -3 5 -9z"/>
<path d="M28540 6640 c-8 -5 -10 -10 -5 -10 6 0 17 5 25 10 8 5 11 10 5 10 -5
0 -17 -5 -25 -10z"/>
<path d="M30797 6639 c7 -7 15 -10 18 -7 3 3 -2 9 -12 12 -14 6 -15 5 -6 -5z"/>
<path d="M31650 6640 c-18 -12 -2 -12 25 0 13 6 15 9 5 9 -8 0 -22 -4 -30 -9z"/>
<path d="M19047 6609 c4 -13 8 -18 11 -10 2 7 -1 18 -6 23 -8 8 -9 4 -5 -13z"/>
<path d="M19693 6623 c103 -2 271 -2 375 0 103 1 18 2 -188 2 -206 0 -291 -1
-187 -2z"/>
<path d="M22013 6623 c104 -2 270 -2 370 0 100 1 16 2 -188 2 -203 0 -285 -1
-182 -2z"/>
<path d="M24308 6623 c7 -3 16 -2 19 1 4 3 -2 6 -13 5 -11 0 -14 -3 -6 -6z"/>
<path d="M25238 6623 c7 -3 16 -2 19 1 4 3 -2 6 -13 5 -11 0 -14 -3 -6 -6z"/>
<path d="M27458 6623 c7 -3 16 -2 19 1 4 3 -2 6 -13 5 -11 0 -14 -3 -6 -6z"/>
<path d="M28460 6620 c-18 -12 -2 -12 25 0 13 6 15 9 5 9 -8 0 -22 -4 -30 -9z"/>
<path d="M31580 6620 c-8 -5 -10 -10 -5 -10 6 0 17 5 25 10 8 5 11 10 5 10 -5
0 -17 -5 -25 -10z"/>
<path d="M17163 6603 c20 -2 54 -2 75 0 20 2 3 4 -38 4 -41 0 -58 -2 -37 -4z"/>
<path d="M24418 6603 c7 -3 16 -2 19 1 4 3 -2 6 -13 5 -11 0 -14 -3 -6 -6z"/>
<path d="M25138 6603 c7 -3 16 -2 19 1 4 3 -2 6 -13 5 -11 0 -14 -3 -6 -6z"/>
<path d="M27573 6603 c9 -2 23 -2 30 0 6 3 -1 5 -18 5 -16 0 -22 -2 -12 -5z"/>
<path d="M28388 6603 c7 -3 16 -2 19 1 4 3 -2 6 -13 5 -11 0 -14 -3 -6 -6z"/>
<path d="M24458 6593 c7 -3 16 -2 19 1 4 3 -2 6 -13 5 -11 0 -14 -3 -6 -6z"/>
<path d="M25088 6593 c6 -2 18 -2 25 0 6 3 1 5 -13 5 -14 0 -19 -2 -12 -5z"/>
<path d="M27638 6593 c6 -2 18 -2 25 0 6 3 1 5 -13 5 -14 0 -19 -2 -12 -5z"/>
<path d="M31478 6593 c7 -3 16 -2 19 1 4 3 -2 6 -13 5 -11 0 -14 -3 -6 -6z"/>
<path d="M17613 6583 c15 -2 39 -2 55 0 15 2 2 4 -28 4 -30 0 -43 -2 -27 -4z"/>
<path d="M24553 6583 c9 -2 25 -2 35 0 9 3 1 5 -18 5 -19 0 -27 -2 -17 -5z"/>
<path d="M24978 6583 c12 -2 30 -2 40 0 9 3 -1 5 -23 4 -22 0 -30 -2 -17 -4z"/>
<path d="M27743 6583 c15 -2 37 -2 50 0 12 2 0 4 -28 4 -27 0 -38 -2 -22 -4z"/>
<path d="M28233 6583 c15 -2 37 -2 50 0 12 2 0 4 -28 4 -27 0 -38 -2 -22 -4z"/>
<path d="M31023 6583 c9 -2 25 -2 35 0 9 3 1 5 -18 5 -19 0 -27 -2 -17 -5z"/>
<path d="M31398 6583 c6 -2 18 -2 25 0 6 3 1 5 -13 5 -14 0 -19 -2 -12 -5z"/>
<path d="M24733 6573 c32 -2 81 -2 110 0 29 2 3 3 -58 3 -60 0 -84 -1 -52 -3z"/>
<path d="M27953 6573 c37 -2 97 -2 135 0 37 2 6 3 -68 3 -74 0 -105 -1 -67 -3z"/>
<path d="M31178 6573 c34 -2 90 -2 125 0 34 2 6 3 -63 3 -69 0 -97 -1 -62 -3z"/>
<path d="M17858 6563 c6 -2 18 -2 25 0 6 3 1 5 -13 5 -14 0 -19 -2 -12 -5z"/>
<path d="M19068 6533 c5 -21 7 -23 10 -9 2 10 0 22 -6 28 -6 6 -7 0 -4 -19z"/>
<path d="M16604 6508 l-19 -23 23 19 c21 18 27 26 19 26 -2 0 -12 -10 -23 -22z"/>
<path d="M15819 6493 c-13 -16 -12 -17 4 -4 9 7 17 15 17 17 0 8 -8 3 -21 -13z"/>
<path d="M3481 6448 c-1 -4 11 -33 25 -65 14 -32 30 -69 35 -82 5 -13 12 -22
14 -19 3 3 -12 43 -34 89 -22 46 -40 81 -40 77z"/>
<path d="M19085 6310 c0 -76 3 -133 7 -127 4 7 8 64 8 127 0 63 -4 120 -8 126
-4 7 -7 -50 -7 -126z"/>
<path d="M11952 6308 c-17 -24 -38 -52 -49 -63 -10 -12 -43 -50 -73 -85 -65
-78 -110 -128 -170 -190 -25 -25 -117 -122 -205 -215 -161 -170 -184 -195
-330 -346 -84 -87 -163 -161 -259 -244 -32 -27 -64 -55 -70 -60 -17 -16 -186
-139 -236 -172 -403 -269 -1091 -579 -1510 -682 -69 -16 -170 -37 -225 -45
-131 -20 -446 -36 -510 -26 -27 5 -113 28 -190 53 -77 24 -176 54 -220 66 -44
13 -89 27 -100 31 l-20 9 20 0 c11 0 58 -9 105 -20 171 -41 318 -69 427 -84
96 -12 125 -12 195 -1 101 17 350 74 357 83 7 7 -41 -1 -129 -22 -205 -50
-255 -57 -355 -52 -56 3 -123 11 -150 17 -28 6 -79 17 -115 25 -36 8 -94 21
-130 30 -287 72 -419 100 -625 134 -208 35 -421 77 -553 110 -93 23 -258 76
-284 91 -10 6 -26 10 -35 10 -24 -1 27 -23 155 -66 141 -47 295 -85 552 -138
66 -13 -141 5 -255 23 -258 40 -372 63 -459 92 -49 16 -90 28 -92 26 -2 -1 47
-45 109 -97 61 -52 195 -176 297 -276 222 -216 322 -305 423 -373 87 -58 88
-58 290 -40 128 12 310 4 622 -27 217 -21 501 -28 630 -15 502 49 1205 297
1619 571 554 367 941 788 1302 1415 120 208 295 577 280 592 -2 2 -18 -15 -34
-39z m-4609 -1875 c-13 -2 -35 -2 -50 0 -16 2 -5 4 22 4 28 0 40 -2 28 -4z
m160 -30 c-7 -2 -19 -2 -25 0 -7 3 -2 5 12 5 14 0 19 -2 13 -5z m132 -23 c13
-5 14 -9 5 -9 -8 0 -24 4 -35 9 -13 5 -14 9 -5 9 8 0 24 -4 35 -9z m135 -30
c13 -9 13 -10 0 -9 -8 0 -24 4 -35 9 l-20 9 20 0 c11 0 27 -4 35 -9z"/>
<path d="M4790 6325 c0 -8 5 -15 10 -15 6 0 10 7 10 15 0 8 -4 15 -10 15 -5 0
-10 -7 -10 -15z"/>
<path d="M15705 6299 c-4 -6 -5 -12 -2 -15 2 -3 7 2 10 11 7 17 1 20 -8 4z"/>
<path d="M3560 6264 c0 -6 7 -19 16 -30 14 -18 14 -18 3 6 -14 31 -19 36 -19
24z"/>
<path d="M15683 6245 c-3 -9 -3 -18 -1 -21 3 -3 8 4 11 16 6 23 -1 27 -10 5z"/>
<path d="M18303 6200 c0 -30 2 -43 4 -27 2 15 2 39 0 55 -2 15 -4 2 -4 -28z"/>
<path d="M3590 6198 c0 -9 5 -20 10 -23 13 -8 13 5 0 25 -8 13 -10 13 -10 -2z"/>
<path d="M15661 6164 c0 -11 3 -14 6 -6 3 7 2 16 -1 19 -3 4 -6 -2 -5 -13z"/>
<path d="M3610 6155 c0 -5 5 -17 10 -25 5 -8 10 -10 10 -5 0 6 -5 17 -10 25
-5 8 -10 11 -10 5z"/>
<path d="M12373 6078 c-32 -63 -92 -172 -130 -238 -39 -66 -117 -195 -125
-205 -16 -20 -78 -117 -78 -121 0 -3 -4 -10 -10 -17 -42 -52 -60 -76 -60 -80
0 -4 -10 -17 -22 -30 -13 -14 -36 -40 -53 -58 -140 -159 -191 -211 -294 -301
-65 -57 -126 -110 -137 -118 -110 -89 -357 -255 -504 -340 -41 -24 -98 -58
-127 -77 -28 -18 -56 -33 -62 -33 -6 0 -11 -3 -11 -7 0 -5 -10 -13 -23 -18
-42 -20 -112 -60 -124 -72 -7 -6 -26 -17 -42 -24 -16 -7 -32 -21 -34 -31 -3
-10 -13 -18 -22 -18 -9 0 -13 -4 -10 -10 3 -5 1 -10 -4 -10 -11 0 -17 -5 -91
-70 -25 -22 -48 -40 -52 -40 -4 0 -5 -7 -2 -15 5 -11 2 -13 -10 -9 -16 6 -31
-4 -69 -44 -38 -41 -47 -53 -47 -63 0 -5 -4 -7 -10 -4 -5 3 -10 -1 -10 -10 0
-12 6 -15 20 -10 13 4 20 2 20 -7 0 -8 10 -15 23 -16 30 -2 87 26 87 43 0 18
17 20 22 3 3 -9 9 -8 22 5 10 9 23 17 29 17 7 1 30 9 52 20 22 11 44 19 49 20
5 0 27 15 50 34 23 18 51 36 63 40 11 4 27 13 33 21 7 8 21 15 31 15 10 0 24
9 31 20 7 11 18 20 25 20 6 0 31 15 55 33 24 17 57 39 73 47 37 18 85 50 105
70 17 17 38 30 90 59 19 11 41 29 48 40 7 12 19 21 28 21 8 0 34 18 57 39 23
22 65 58 92 81 189 157 365 348 510 554 26 37 75 92 75 85 0 -10 -33 -74 -41
-79 -9 -6 -41 -101 -36 -107 7 -6 37 8 37 18 0 5 7 9 15 9 8 0 12 6 10 13 -3
6 13 23 35 37 22 13 40 29 40 35 0 6 14 19 30 28 17 10 30 22 30 26 0 5 10 19
23 32 13 13 45 52 71 87 26 35 59 74 72 87 13 13 26 35 30 49 3 14 10 26 15
26 5 0 9 8 9 18 0 10 4 22 9 28 4 5 23 54 41 109 18 55 36 111 41 125 12 34
50 188 56 225 2 17 9 40 15 51 5 12 8 29 6 39 -2 10 -15 -7 -35 -47z"/>
<path d="M3631 6106 c-2 -14 40 -148 44 -144 3 2 -6 38 -19 79 -13 40 -24 70
-25 65z"/>
<path d="M19068 6087 c-3 -19 -2 -25 4 -19 6 6 8 18 6 28 -3 14 -5 12 -10 -9z"/>
<path d="M16441 5994 c0 -11 3 -14 6 -6 3 7 2 16 -1 19 -3 4 -6 -2 -5 -13z"/>
<path d="M19046 5993 c-6 -14 -5 -15 5 -6 7 7 10 15 7 18 -3 3 -9 -2 -12 -12z"/>
<path d="M3710 5857 c0 -13 42 -118 46 -115 2 2 -6 29 -17 59 -20 52 -29 70
-29 56z"/>
<path d="M15651 5834 c0 -11 3 -14 6 -6 3 7 2 16 -1 19 -3 4 -6 -2 -5 -13z"/>
<path d="M18976 5803 c-6 -14 -5 -15 5 -6 7 7 10 15 7 18 -3 3 -9 -2 -12 -12z"/>
<path d="M15662 5780 c0 -14 2 -19 5 -12 2 6 2 18 0 25 -3 6 -5 1 -5 -13z"/>
<path d="M18956 5763 c-6 -14 -5 -15 5 -6 7 7 10 15 7 18 -3 3 -9 -2 -12 -12z"/>
<path d="M18936 5723 c-6 -14 -5 -15 5 -6 7 7 10 15 7 18 -3 3 -9 -2 -12 -12z"/>
<path d="M3760 5725 c0 -5 5 -17 10 -25 5 -8 10 -10 10 -5 0 6 -5 17 -10 25
-5 8 -10 11 -10 5z"/>
<path d="M12469 5675 c-12 -19 -25 -35 -30 -35 -5 0 -9 -6 -9 -14 0 -8 -4 -16
-8 -18 -15 -5 -106 -151 -127 -201 -10 -26 -23 -47 -27 -47 -4 0 -8 -6 -8 -13
0 -7 -11 -37 -25 -65 -14 -29 -25 -59 -25 -67 0 -8 -3 -15 -8 -15 -6 0 -15
-18 -37 -75 -5 -11 -9 -24 -11 -30 -1 -5 -12 -43 -23 -82 -19 -67 -29 -132
-14 -93 9 22 54 82 80 106 13 12 23 25 23 29 0 4 15 31 34 59 18 28 44 72 56
99 12 26 26 50 31 53 5 3 9 13 9 23 0 9 11 39 24 67 30 62 56 139 56 164 0 11
5 20 10 20 6 0 10 8 10 17 0 19 16 73 36 121 18 42 9 41 -17 -3z"/>
<path d="M3780 5679 c0 -10 40 -99 46 -99 2 0 -2 16 -10 35 -17 40 -35 73 -36
64z"/>
<path d="M12551 5578 c-85 -287 -266 -641 -463 -901 -231 -306 -632 -700 -960
-944 -95 -70 -118 -94 -40 -42 143 98 429 346 622 539 234 235 380 415 564
701 47 72 168 316 201 402 13 37 29 75 34 84 16 31 65 193 59 198 -2 3 -10
-14 -17 -37z"/>
<path d="M16960 5606 c0 -2 11 -6 25 -8 13 -3 22 -1 19 3 -5 9 -44 13 -44 5z"/>
<path d="M17525 5600 c-7 -12 2 -12 30 0 19 8 19 9 -2 9 -12 1 -25 -3 -28 -9z"/>
<path d="M15720 5581 c0 -6 4 -13 10 -16 6 -3 7 1 4 9 -7 18 -14 21 -14 7z"/>
<path d="M17141 5586 c11 -9 119 -15 119 -6 0 6 -27 10 -62 10 -34 0 -59 -2
-57 -4z"/>
<path d="M17294 5579 c-4 -8 14 -9 62 -4 90 10 94 15 11 15 -37 0 -69 -5 -73
-11z"/>
<path d="M3830 5566 c0 -36 291 -506 313 -506 5 0 -5 17 -21 38 -55 69 -180
266 -236 372 -31 58 -56 101 -56 96z"/>
<path d="M18804 5538 l-29 -33 33 29 c30 28 37 36 29 36 -2 0 -16 -15 -33 -32z"/>
<path d="M15740 5541 c0 -6 4 -13 10 -16 6 -3 7 1 4 9 -7 18 -14 21 -14 7z"/>
<path d="M15810 5426 c0 -2 8 -10 18 -17 15 -13 16 -12 3 4 -13 16 -21 21 -21
13z"/>
<path d="M18679 5413 c-13 -17 -13 -17 6 -3 11 8 22 16 24 17 2 2 0 3 -6 3 -6
0 -17 -8 -24 -17z"/>
<path d="M15895 5330 c27 -27 51 -50 54 -50 3 0 -17 23 -44 50 -27 28 -51 50
-54 50 -3 0 17 -22 44 -50z"/>
<path d="M15980 5256 c0 -2 8 -10 18 -17 15 -13 16 -12 3 4 -13 16 -21 21 -21
13z"/>
<path d="M18240 5150 c-8 -5 -10 -10 -5 -10 6 0 17 5 25 10 8 5 11 10 5 10 -5
0 -17 -5 -25 -10z"/>
<path d="M18195 5130 c-3 -6 1 -7 9 -4 18 7 21 14 7 14 -6 0 -13 -4 -16 -10z"/>
<path d="M16210 5116 c0 -2 7 -7 16 -10 8 -3 12 -2 9 4 -6 10 -25 14 -25 6z"/>
<path d="M18140 5110 c-8 -5 -10 -10 -5 -10 6 0 17 5 25 10 8 5 11 10 5 10 -5
0 -17 -5 -25 -10z"/>
<path d="M18080 5090 c-8 -5 -10 -10 -5 -10 6 0 17 5 25 10 8 5 11 10 5 10 -5
0 -17 -5 -25 -10z"/>
<path d="M16320 5070 c8 -5 22 -9 30 -9 10 0 8 3 -5 9 -27 12 -43 12 -25 0z"/>
<path d="M18015 5070 c-13 -6 -15 -9 -5 -9 8 0 22 4 30 9 18 12 2 12 -25 0z"/>
<path d="M4160 5035 c8 -11 46 -58 85 -104 38 -46 92 -111 118 -145 54 -69 81
-96 50 -51 -23 33 -52 69 -162 201 -77 93 -118 138 -91 99z"/>
<path d="M16410 5040 c8 -5 22 -9 30 -9 10 0 8 3 -5 9 -27 12 -43 12 -25 0z"/>
<path d="M17928 5043 c7 -3 16 -2 19 1 4 3 -2 6 -13 5 -11 0 -14 -3 -6 -6z"/>
<path d="M16485 5020 c11 -5 27 -9 35 -9 9 0 8 4 -5 9 -11 5 -27 9 -35 9 -9 0
-8 -4 5 -9z"/>
<path d="M16575 5000 c11 -5 29 -8 40 -8 16 0 15 2 -5 8 -34 11 -60 11 -35 0z"/>
<path d="M17708 4993 c6 -2 18 -2 25 0 6 3 1 5 -13 5 -14 0 -19 -2 -12 -5z"/>
<path d="M16688 4983 c7 -3 16 -2 19 1 4 3 -2 6 -13 5 -11 0 -14 -3 -6 -6z"/>
<path d="M17618 4983 c6 -2 18 -2 25 0 6 3 1 5 -13 5 -14 0 -19 -2 -12 -5z"/>
<path d="M16733 4973 c9 -2 23 -2 30 0 6 3 -1 5 -18 5 -16 0 -22 -2 -12 -5z"/>
<path d="M17563 4973 c9 -2 23 -2 30 0 6 3 -1 5 -18 5 -16 0 -22 -2 -12 -5z"/>
<path d="M16833 4963 c9 -2 23 -2 30 0 6 3 -1 5 -18 5 -16 0 -22 -2 -12 -5z"/>
<path d="M17453 4963 c9 -2 23 -2 30 0 6 3 -1 5 -18 5 -16 0 -22 -2 -12 -5z"/>
<path d="M16908 4953 c12 -2 32 -2 45 0 12 2 2 4 -23 4 -25 0 -35 -2 -22 -4z"/>
<path d="M17273 4953 c26 -2 67 -2 90 0 23 2 2 3 -48 3 -49 0 -68 -1 -42 -3z"/>
<path d="M6191 4786 c9 -9 172 -76 176 -73 2 3 -27 17 -64 33 -37 15 -72 31
-77 36 -10 8 -43 12 -35 4z"/>
<path d="M6425 4686 c55 -27 65 -30 65 -18 0 8 -33 20 -99 38 -9 2 7 -7 34
-20z"/>
<path d="M4430 4696 c0 -11 178 -239 240 -307 68 -75 215 -206 273 -242 50
-32 28 -10 -49 48 -135 101 -307 287 -423 458 -28 42 -41 55 -41 43z"/>
<path d="M9740 4568 c-14 -6 -41 -18 -60 -26 -19 -8 -44 -18 -55 -22 -24 -10
-93 -33 -154 -51 -24 -7 -39 -15 -34 -16 14 -5 206 60 283 96 60 27 77 44 20
19z"/>
<path d="M9360 4438 c-19 -5 -52 -14 -74 -19 -21 -6 -36 -13 -33 -15 5 -6 156
31 165 40 8 8 -17 6 -58 -6z"/>
<path d="M9124 4380 c-39 -10 -99 -24 -135 -31 -69 -13 -109 -28 -76 -29 19 0
211 44 287 66 70 20 6 15 -76 -6z"/>
<path d="M11130 4150 c-8 -5 -12 -12 -9 -15 8 -8 39 5 39 16 0 11 -11 11 -30
-1z"/>
<path d="M4980 4125 c0 -14 199 -130 208 -121 2 3 -19 16 -47 31 -29 14 -76
41 -106 61 -30 19 -55 32 -55 29z"/>
<path d="M11090 4090 c0 -5 7 -10 16 -10 8 0 12 5 9 10 -3 6 -10 10 -16 10 -5
0 -9 -4 -9 -10z"/>
<path d="M11017 4052 c-19 -21 -22 -42 -7 -42 6 0 10 6 10 14 0 8 5 16 12 18
6 2 9 10 7 17 -3 9 -9 7 -22 -7z"/>
<path d="M10960 3996 c0 -8 -6 -16 -12 -19 -7 -2 -10 -7 -7 -11 9 -10 39 5 39
19 0 8 -4 17 -10 20 -5 3 -10 0 -10 -9z"/>
<path d="M5200 3995 c0 -7 176 -91 234 -111 51 -19 35 -2 -19 18 -36 14 -189
84 -207 95 -5 2 -8 1 -8 -2z"/>
<path d="M10850 3910 c0 -5 5 -10 10 -10 6 0 10 5 10 10 0 6 -4 10 -10 10 -5
0 -10 -4 -10 -10z"/>
<path d="M5495 3860 c3 -5 20 -13 38 -19 18 -5 41 -12 52 -16 18 -6 18 -5 3 5
-27 17 -100 41 -93 30z"/>
<path d="M5639 3805 c18 -8 38 -15 45 -15 6 1 -4 7 -23 15 -18 8 -38 15 -45
15 -6 -1 4 -7 23 -15z"/>
<path d="M5703 3785 c9 -10 119 -46 125 -41 2 2 -21 12 -50 21 -29 10 -60 20
-68 23 -8 3 -11 1 -7 -3z"/>
<path d="M7505 3751 l-30 -8 36 -16 c54 -24 347 -115 504 -157 183 -49 221
-53 360 -41 148 12 261 28 290 41 11 5 34 11 50 15 85 17 97 24 109 62 6 18 1
21 -50 27 -30 3 -133 11 -227 16 -176 10 -261 18 -497 45 -157 17 -501 28
-545 16z"/>
<path d="M5853 3734 c9 -10 130 -45 135 -39 3 2 -22 11 -54 21 -33 9 -66 19
-74 22 -8 3 -11 1 -7 -4z"/>
<path d="M6008 3683 c7 -3 16 -2 19 1 4 3 -2 6 -13 5 -11 0 -14 -3 -6 -6z"/>
<path d="M6055 3670 c11 -5 27 -9 35 -9 9 0 8 4 -5 9 -11 5 -27 9 -35 9 -9 0
-8 -4 5 -9z"/>
<path d="M8850 3660 c0 -5 5 -10 10 -10 6 0 10 5 10 10 0 6 -4 10 -10 10 -5 0
-10 -4 -10 -10z"/>
<path d="M6140 3645 c19 -7 44 -14 55 -14 11 0 0 7 -25 15 -57 17 -77 17 -30
-1z"/>
<path d="M10965 3619 c-58 -39 -98 -72 -65 -54 31 17 130 86 130 90 0 7 1 8
-65 -36z"/>
<path d="M6230 3620 c8 -5 24 -9 35 -9 l20 0 -20 9 c-11 5 -27 9 -35 9 -13 1
-13 0 0 -9z"/>
<path d="M6310 3600 c8 -5 26 -9 40 -9 l25 1 -25 8 c-14 4 -32 8 -40 9 -13 1
-13 0 0 -9z"/>
<path d="M6435 3574 c33 -7 67 -13 75 -12 23 1 -82 26 -110 26 -14 0 2 -6 35
-14z"/>
<path d="M6570 3550 c19 -5 64 -11 100 -14 l65 -5 -75 14 c-84 15 -150 19 -90
5z"/>
<path d="M10807 3521 c-60 -36 -74 -50 -22 -23 39 20 85 52 75 51 -3 0 -26
-13 -53 -28z"/>
<path d="M6776 3519 c25 -6 65 -29 105 -62 64 -53 223 -169 269 -197 106 -62
176 -100 187 -100 7 0 13 -4 13 -10 0 -5 8 -10 18 -10 10 0 22 -4 28 -9 12
-11 115 -43 121 -38 2 3 -20 13 -49 22 -143 47 -387 192 -561 332 -89 73 -107
83 -144 82 -23 -1 -21 -3 13 -10z"/>
<path d="M10715 3470 c-3 -6 1 -7 9 -4 18 7 21 14 7 14 -6 0 -13 -4 -16 -10z"/>
<path d="M7175 3460 c-4 -6 6 -10 22 -10 22 0 25 2 13 10 -19 12 -27 12 -35 0z"/>
<path d="M10650 3440 c-19 -11 -30 -19 -25 -19 6 0 26 8 45 19 19 11 31 19 25
19 -5 0 -26 -8 -45 -19z"/>
<path d="M10532 3388 c-40 -17 -70 -33 -68 -35 5 -5 125 45 141 59 14 12 6 10
-73 -24z"/>
<path d="M10331 3312 c-58 -20 -99 -38 -92 -40 7 -2 23 0 34 6 12 6 53 21 90
33 37 12 70 26 73 30 3 5 4 9 2 8 -2 -1 -50 -17 -107 -37z"/>
<path d="M10155 3254 l-40 -14 40 6 c22 3 44 10 50 15 12 12 0 10 -50 -7z"/>
<path d="M10065 3230 l-20 -9 20 0 c11 0 27 4 35 9 13 9 13 10 0 9 -8 0 -24
-4 -35 -9z"/>
<path d="M9937 3193 c-43 -14 -76 -28 -73 -30 2 -2 25 3 50 11 26 9 55 16 65
16 10 0 24 7 31 15 7 8 11 15 9 14 -2 0 -39 -12 -82 -26z"/>
<path d="M9810 3150 c-12 -8 -11 -10 7 -10 12 0 25 5 28 10 8 13 -15 13 -35 0z"/>
<path d="M9711 3118 c-34 -10 -61 -21 -59 -23 5 -5 138 34 138 40 0 7 -8 5
-79 -17z"/>
<path d="M7542 3080 c44 -28 221 -42 498 -38 151 1 311 0 355 -4 66 -5 72 -5
35 4 -25 5 -205 11 -400 13 -199 1 -373 7 -395 13 -78 20 -111 24 -93 12z"/>
<path d="M9535 3066 c-44 -13 -109 -31 -145 -39 -48 -12 -54 -15 -25 -13 39 3
210 47 257 65 44 18 -7 10 -87 -13z"/>
<path d="M8500 3020 c8 -5 35 -9 60 -9 41 1 42 2 15 9 -16 4 -43 8 -60 9 -23
0 -26 -2 -15 -9z"/>
<path d="M8660 2999 c14 -6 95 -12 180 -14 l155 -3 -130 7 c-71 5 -152 11
-180 15 -41 5 -46 4 -25 -5z"/>
<path d="M9257 3004 c-3 -3 -59 -10 -124 -14 l-118 -9 131 4 c72 1 140 7 150
13 17 10 17 11 -7 12 -14 0 -28 -3 -32 -6z"/>
</g>
</svg>
